G04*
G04 #@! TF.GenerationSoftware,Altium Limited,Altium Designer,21.4.1 (30)*
G04*
G04 Layer_Color=32768*
%FSLAX25Y25*%
%MOIN*%
G70*
G04*
G04 #@! TF.SameCoordinates,C371DEEE-1534-44D1-B208-D1612C8B0698*
G04*
G04*
G04 #@! TF.FilePolarity,Positive*
G04*
G01*
G75*
%ADD10C,0.00787*%
D10*
X41142Y177362D02*
X66339D01*
Y166732D02*
Y177362D01*
X41142Y166732D02*
X66339D01*
X41142D02*
Y177362D01*
X54331Y6496D02*
Y26968D01*
X28740D02*
X54331D01*
X28740Y6496D02*
Y26968D01*
Y6496D02*
X54331D01*
X276575Y283858D02*
X297047D01*
X276575Y258268D02*
Y283858D01*
Y258268D02*
X297047D01*
Y283858D01*
X251890Y41752D02*
Y67303D01*
Y41752D02*
X284331D01*
Y67303D01*
X251890D02*
X284331D01*
X41339Y149803D02*
Y160433D01*
Y149803D02*
X66535D01*
Y160433D01*
X41339D02*
X66535D01*
X180630Y203760D02*
Y229311D01*
Y203760D02*
X213071D01*
Y229311D01*
X180630D02*
X213071D01*
X101890Y203760D02*
Y229311D01*
Y203760D02*
X134331D01*
Y229311D01*
X101890D02*
X134331D01*
X141260Y164390D02*
Y189941D01*
Y164390D02*
X173701D01*
Y189941D01*
X141260D02*
X173701D01*
X141260Y243130D02*
Y268681D01*
Y243130D02*
X173701D01*
Y268681D01*
X141260D02*
X173701D01*
M02*
