G04*
G04 #@! TF.GenerationSoftware,Altium Limited,Altium Designer,21.4.1 (30)*
G04*
G04 Layer_Color=2752767*
%FSLAX25Y25*%
%MOIN*%
G70*
G04*
G04 #@! TF.SameCoordinates,C371DEEE-1534-44D1-B208-D1612C8B0698*
G04*
G04*
G04 #@! TF.FilePolarity,Positive*
G04*
G01*
G75*
%ADD58C,0.00200*%
%ADD59C,0.00267*%
D58*
X43098Y171247D02*
Y172847D01*
X44698D01*
Y171247D01*
X43098D01*
X62783D02*
Y172847D01*
X64383D01*
Y171247D01*
X62783D01*
X17717Y16917D02*
X16917Y18517D01*
X18517D01*
X17717Y16917D01*
X297244D02*
X296444Y18517D01*
X298044D01*
X297244Y16917D01*
Y296444D02*
X296444Y298044D01*
X298044D01*
X297244Y296444D01*
X17717D02*
X16917Y298044D01*
X18517D01*
X17717Y296444D01*
X121299Y177546D02*
X121699Y177946D01*
X122099D01*
X121699Y178346D01*
X122099Y178746D01*
X121699D01*
X121299Y179146D01*
X120899Y178746D01*
X120499D01*
X120899Y178346D01*
X120499Y177946D01*
X120899D01*
X121299Y177546D01*
X91299D02*
X91699Y177946D01*
X92099D01*
X91699Y178346D01*
X92099Y178746D01*
X91699D01*
X91299Y179146D01*
X90899Y178746D01*
X90499D01*
X90899Y178346D01*
X90499Y177946D01*
X90899D01*
X91299Y177546D01*
X87756Y257665D02*
X88156Y258065D01*
X88556D01*
X88156Y258465D01*
X88556Y258865D01*
X88156D01*
X87756Y259265D01*
X87356Y258865D01*
X86956D01*
X87356Y258465D01*
X86956Y258065D01*
X87356D01*
X87756Y257665D01*
X117756D02*
X118156Y258065D01*
X118556D01*
X118156Y258465D01*
X118556Y258865D01*
X118156D01*
X117756Y259265D01*
X117356Y258865D01*
X116956D01*
X117356Y258465D01*
X116956Y258065D01*
X117356D01*
X117756Y257665D01*
X230157Y259633D02*
X230557Y260033D01*
X230957D01*
X230557Y260433D01*
X230957Y260833D01*
X230557D01*
X230157Y261233D01*
X229757Y260833D01*
X229357D01*
X229757Y260433D01*
X229357Y260033D01*
X229757D01*
X230157Y259633D01*
X200157D02*
X200557Y260033D01*
X200957D01*
X200557Y260433D01*
X200957Y260833D01*
X200557D01*
X200157Y261233D01*
X199757Y260833D01*
X199357D01*
X199757Y260433D01*
X199357Y260033D01*
X199757D01*
X200157Y259633D01*
X233898Y177940D02*
X234298Y178340D01*
X234698D01*
X234298Y178740D01*
X234698Y179140D01*
X234298D01*
X233898Y179540D01*
X233498Y179140D01*
X233098D01*
X233498Y178740D01*
X233098Y178340D01*
X233498D01*
X233898Y177940D01*
X203898D02*
X204298Y178340D01*
X204698D01*
X204298Y178740D01*
X204698Y179140D01*
X204298D01*
X203898Y179540D01*
X203498Y179140D01*
X203098D01*
X203498Y178740D01*
X203098Y178340D01*
X203498D01*
X203898Y177940D01*
X40499Y99003D02*
X40899Y99803D01*
X40499Y100603D01*
X41299Y100203D01*
X42099Y100603D01*
X41699Y99803D01*
X42099Y99003D01*
X41299Y99403D01*
X40499Y99003D01*
X30499D02*
X30899Y99803D01*
X30499Y100603D01*
X31299Y100203D01*
X32099Y100603D01*
X31699Y99803D01*
X32099Y99003D01*
X31299Y99403D01*
X30499Y99003D01*
X20499D02*
X20899Y99803D01*
X20499Y100603D01*
X21299Y100203D01*
X22099Y100603D01*
X21699Y99803D01*
X22099Y99003D01*
X21299Y99403D01*
X20499Y99003D01*
X45072Y18694D02*
Y18294D01*
X45872D01*
Y18694D01*
X46272D01*
Y19494D01*
X45872D01*
Y19894D01*
X45072D01*
Y19494D01*
X44672D01*
Y18694D01*
X45072D01*
X37198D02*
Y18294D01*
X37998D01*
Y18694D01*
X38398D01*
Y19494D01*
X37998D01*
Y19894D01*
X37198D01*
Y19494D01*
X36798D01*
Y18694D01*
X37198D01*
X284049Y274600D02*
Y274200D01*
X284849D01*
Y274600D01*
X285249D01*
Y275400D01*
X284849D01*
Y275800D01*
X284049D01*
Y275400D01*
X283649D01*
Y274600D01*
X284049D01*
Y266726D02*
Y266326D01*
X284849D01*
Y266726D01*
X285249D01*
Y267526D01*
X284849D01*
Y267926D01*
X284049D01*
Y267526D01*
X283649D01*
Y266726D01*
X284049D01*
X256011Y238570D02*
X256411D01*
X256811Y238970D01*
X257211Y238570D01*
X257611D01*
Y238970D01*
X257211Y239370D01*
X257611Y239770D01*
Y240170D01*
X257211D01*
X256811Y239770D01*
X256411Y240170D01*
X256011D01*
Y239770D01*
X256411Y239370D01*
X256011Y238970D01*
Y238570D01*
X293570D02*
X293970D01*
X294370Y238970D01*
X294770Y238570D01*
X295170D01*
Y238970D01*
X294770Y239370D01*
X295170Y239770D01*
Y240170D01*
X294770D01*
X294370Y239770D01*
X293970Y240170D01*
X293570D01*
Y239770D01*
X293970Y239370D01*
X293570Y238970D01*
Y238570D01*
X264173Y175578D02*
X264573Y175978D01*
X264973D01*
X264573Y176378D01*
X264973Y176778D01*
X264573D01*
X264173Y177178D01*
X263773Y176778D01*
X263373D01*
X263773Y176378D01*
X263373Y175978D01*
X263773D01*
X264173Y175578D01*
Y145578D02*
X264573Y145978D01*
X264973D01*
X264573Y146378D01*
X264973Y146778D01*
X264573D01*
X264173Y147178D01*
X263773Y146778D01*
X263373D01*
X263773Y146378D01*
X263373Y145978D01*
X263773D01*
X264173Y145578D01*
X283852Y203852D02*
Y203452D01*
X284652D01*
Y203852D01*
X285052D01*
Y204652D01*
X284652D01*
Y205052D01*
X283852D01*
Y204652D01*
X283452D01*
Y203852D01*
X283852D01*
Y208852D02*
Y208452D01*
X284652D01*
Y208852D01*
X285052D01*
Y209652D01*
X284652D01*
Y210052D01*
X283852D01*
Y209652D01*
X283452D01*
Y208852D01*
X283852D01*
Y213852D02*
Y213452D01*
X284652D01*
Y213852D01*
X285052D01*
Y214652D01*
X284652D01*
Y215052D01*
X283852D01*
Y214652D01*
X283452D01*
Y213852D01*
X283852D01*
X295079Y175027D02*
X295479Y175427D01*
X295879D01*
X295479Y175827D01*
X295879Y176227D01*
X295479D01*
X295079Y176627D01*
X294679Y176227D01*
X294279D01*
X294679Y175827D01*
X294279Y175427D01*
X294679D01*
X295079Y175027D01*
Y145027D02*
X295479Y145427D01*
X295879D01*
X295479Y145827D01*
X295879Y146227D01*
X295479D01*
X295079Y146627D01*
X294679Y146227D01*
X294279D01*
X294679Y145827D01*
X294279Y145427D01*
X294679D01*
X295079Y145027D01*
X146523Y14554D02*
X146923Y15354D01*
X146523Y16154D01*
X147323Y15754D01*
X148123Y16154D01*
X147723Y15354D01*
X148123Y14554D01*
X147323Y14954D01*
X146523Y14554D01*
X166523D02*
X166923Y15354D01*
X166523Y16154D01*
X167323Y15754D01*
X168123Y16154D01*
X167723Y15354D01*
X168123Y14554D01*
X167323Y14954D01*
X166523Y14554D01*
X186523D02*
X186923Y15354D01*
X186523Y16154D01*
X187323Y15754D01*
X188123Y16154D01*
X187723Y15354D01*
X188123Y14554D01*
X187323Y14954D01*
X186523Y14554D01*
X176523D02*
X176923Y15354D01*
X176523Y16154D01*
X177323Y15754D01*
X178123Y16154D01*
X177723Y15354D01*
X178123Y14554D01*
X177323Y14954D01*
X176523Y14554D01*
X156523D02*
X156923Y15354D01*
X156523Y16154D01*
X157323Y15754D01*
X158123Y16154D01*
X157723Y15354D01*
X158123Y14554D01*
X157323Y14954D01*
X156523Y14554D01*
X136523D02*
X136923Y15354D01*
X136523Y16154D01*
X137323Y15754D01*
X138123Y16154D01*
X137723Y15354D01*
X138123Y14554D01*
X137323Y14954D01*
X136523Y14554D01*
X126523D02*
X126923Y15354D01*
X126523Y16154D01*
X127323Y15754D01*
X128123Y16154D01*
X127723Y15354D01*
X128123Y14554D01*
X127323Y14954D01*
X126523Y14554D01*
X280105Y45669D02*
X280905Y46469D01*
X281705Y45669D01*
X280905Y44869D01*
X280105Y45669D01*
X254515D02*
X255315Y46469D01*
X256115Y45669D01*
X255315Y44869D01*
X254515Y45669D01*
X280105Y63386D02*
X280905Y64186D01*
X281705Y63386D01*
X280905Y62586D01*
X280105Y63386D01*
X254515D02*
X255315Y64186D01*
X256115Y63386D01*
X255315Y62586D01*
X254515Y63386D01*
X214496Y59279D02*
X214896Y59679D01*
X215296D01*
X214896Y60079D01*
X215296Y60479D01*
X214896D01*
X214496Y60879D01*
X214096Y60479D01*
X213696D01*
X214096Y60079D01*
X213696Y59679D01*
X214096D01*
X214496Y59279D01*
Y29279D02*
X214896Y29679D01*
X215296D01*
X214896Y30079D01*
X215296Y30479D01*
X214896D01*
X214496Y30879D01*
X214096Y30479D01*
X213696D01*
X214096Y30079D01*
X213696Y29679D01*
X214096D01*
X214496Y29279D01*
X197496Y59279D02*
X197896Y59679D01*
X198296D01*
X197896Y60079D01*
X198296Y60479D01*
X197896D01*
X197496Y60879D01*
X197096Y60479D01*
X196696D01*
X197096Y60079D01*
X196696Y59679D01*
X197096D01*
X197496Y59279D01*
Y29279D02*
X197896Y29679D01*
X198296D01*
X197896Y30079D01*
X198296Y30479D01*
X197896D01*
X197496Y30879D01*
X197096Y30479D01*
X196696D01*
X197096Y30079D01*
X196696Y29679D01*
X197096D01*
X197496Y29279D01*
X180496Y59279D02*
X180896Y59679D01*
X181296D01*
X180896Y60079D01*
X181296Y60479D01*
X180896D01*
X180496Y60879D01*
X180096Y60479D01*
X179696D01*
X180096Y60079D01*
X179696Y59679D01*
X180096D01*
X180496Y59279D01*
Y29279D02*
X180896Y29679D01*
X181296D01*
X180896Y30079D01*
X181296Y30479D01*
X180896D01*
X180496Y30879D01*
X180096Y30479D01*
X179696D01*
X180096Y30079D01*
X179696Y29679D01*
X180096D01*
X180496Y29279D01*
X162992Y59279D02*
X163392Y59679D01*
X163792D01*
X163392Y60079D01*
X163792Y60479D01*
X163392D01*
X162992Y60879D01*
X162592Y60479D01*
X162192D01*
X162592Y60079D01*
X162192Y59679D01*
X162592D01*
X162992Y59279D01*
Y29279D02*
X163392Y29679D01*
X163792D01*
X163392Y30079D01*
X163792Y30479D01*
X163392D01*
X162992Y30879D01*
X162592Y30479D01*
X162192D01*
X162592Y30079D01*
X162192Y29679D01*
X162592D01*
X162992Y29279D01*
X144094Y59279D02*
X144494Y59679D01*
X144894D01*
X144494Y60079D01*
X144894Y60479D01*
X144494D01*
X144094Y60879D01*
X143694Y60479D01*
X143294D01*
X143694Y60079D01*
X143294Y59679D01*
X143694D01*
X144094Y59279D01*
Y29279D02*
X144494Y29679D01*
X144894D01*
X144494Y30079D01*
X144894Y30479D01*
X144494D01*
X144094Y30879D01*
X143694Y30479D01*
X143294D01*
X143694Y30079D01*
X143294Y29679D01*
X143694D01*
X144094Y29279D01*
X125000Y59279D02*
X125400Y59679D01*
X125800D01*
X125400Y60079D01*
X125800Y60479D01*
X125400D01*
X125000Y60879D01*
X124600Y60479D01*
X124200D01*
X124600Y60079D01*
X124200Y59679D01*
X124600D01*
X125000Y59279D01*
Y29279D02*
X125400Y29679D01*
X125800D01*
X125400Y30079D01*
X125800Y30479D01*
X125400D01*
X125000Y30879D01*
X124600Y30479D01*
X124200D01*
X124600Y30079D01*
X124200Y29679D01*
X124600D01*
X125000Y29279D01*
X107480Y59279D02*
X107880Y59679D01*
X108280D01*
X107880Y60079D01*
X108280Y60479D01*
X107880D01*
X107480Y60879D01*
X107080Y60479D01*
X106680D01*
X107080Y60079D01*
X106680Y59679D01*
X107080D01*
X107480Y59279D01*
Y29279D02*
X107880Y29679D01*
X108280D01*
X107880Y30079D01*
X108280Y30479D01*
X107880D01*
X107480Y30879D01*
X107080Y30479D01*
X106680D01*
X107080Y30079D01*
X106680Y29679D01*
X107080D01*
X107480Y29279D01*
X107113Y297231D02*
X107513Y298031D01*
X107113Y298831D01*
X107913Y298431D01*
X108713Y298831D01*
X108313Y298031D01*
X108713Y297231D01*
X107913Y297631D01*
X107113Y297231D01*
X117113D02*
X117513Y298031D01*
X117113Y298831D01*
X117913Y298431D01*
X118713Y298831D01*
X118313Y298031D01*
X118713Y297231D01*
X117913Y297631D01*
X117113Y297231D01*
X127113D02*
X127513Y298031D01*
X127113Y298831D01*
X127913Y298431D01*
X128713Y298831D01*
X128313Y298031D01*
X128713Y297231D01*
X127913Y297631D01*
X127113Y297231D01*
X147113D02*
X147513Y298031D01*
X147113Y298831D01*
X147913Y298431D01*
X148713Y298831D01*
X148313Y298031D01*
X148713Y297231D01*
X147913Y297631D01*
X147113Y297231D01*
X157113D02*
X157513Y298031D01*
X157113Y298831D01*
X157913Y298431D01*
X158713Y298831D01*
X158313Y298031D01*
X158713Y297231D01*
X157913Y297631D01*
X157113Y297231D01*
X177113D02*
X177513Y298031D01*
X177113Y298831D01*
X177913Y298431D01*
X178713Y298831D01*
X178313Y298031D01*
X178713Y297231D01*
X177913Y297631D01*
X177113Y297231D01*
X197113D02*
X197513Y298031D01*
X197113Y298831D01*
X197913Y298431D01*
X198713Y298831D01*
X198313Y298031D01*
X198713Y297231D01*
X197913Y297631D01*
X197113Y297231D01*
X217113D02*
X217513Y298031D01*
X217113Y298831D01*
X217913Y298431D01*
X218713Y298831D01*
X218313Y298031D01*
X218713Y297231D01*
X217913Y297631D01*
X217113Y297231D01*
X207113D02*
X207513Y298031D01*
X207113Y298831D01*
X207913Y298431D01*
X208713Y298831D01*
X208313Y298031D01*
X208713Y297231D01*
X207913Y297631D01*
X207113Y297231D01*
X187113D02*
X187513Y298031D01*
X187113Y298831D01*
X187913Y298431D01*
X188713Y298831D01*
X188313Y298031D01*
X188713Y297231D01*
X187913Y297631D01*
X187113Y297231D01*
X167113D02*
X167513Y298031D01*
X167113Y298831D01*
X167913Y298431D01*
X168713Y298831D01*
X168313Y298031D01*
X168713Y297231D01*
X167913Y297631D01*
X167113Y297231D01*
X137113D02*
X137513Y298031D01*
X137113Y298831D01*
X137913Y298431D01*
X138713Y298831D01*
X138313Y298031D01*
X138713Y297231D01*
X137913Y297631D01*
X137113Y297231D01*
X70669Y300224D02*
X71069Y300624D01*
X71469D01*
X71069Y301024D01*
X71469Y301424D01*
X71069D01*
X70669Y301824D01*
X70269Y301424D01*
X69869D01*
X70269Y301024D01*
X69869Y300624D01*
X70269D01*
X70669Y300224D01*
Y270224D02*
X71069Y270624D01*
X71469D01*
X71069Y271024D01*
X71469Y271424D01*
X71069D01*
X70669Y271824D01*
X70269Y271424D01*
X69869D01*
X70269Y271024D01*
X69869Y270624D01*
X70269D01*
X70669Y270224D01*
X46450Y277356D02*
Y276956D01*
X47250D01*
Y277356D01*
X47650D01*
Y278156D01*
X47250D01*
Y278556D01*
X46450D01*
Y278156D01*
X46050D01*
Y277356D01*
X46450D01*
X38576D02*
Y276956D01*
X39376D01*
Y277356D01*
X39776D01*
Y278156D01*
X39376D01*
Y278556D01*
X38576D01*
Y278156D01*
X38176D01*
Y277356D01*
X38576D01*
X30702D02*
Y276956D01*
X31502D01*
Y277356D01*
X31902D01*
Y278156D01*
X31502D01*
Y278556D01*
X30702D01*
Y278156D01*
X30302D01*
Y277356D01*
X30702D01*
X119239Y160814D02*
Y162414D01*
X120839D01*
Y160814D01*
X119239D01*
X100027D02*
Y162414D01*
X101627D01*
Y160814D01*
X100027D01*
X62979Y154318D02*
Y155918D01*
X64579D01*
Y154318D01*
X62979D01*
X43294D02*
Y155918D01*
X44894D01*
Y154318D01*
X43294D01*
X208846Y207677D02*
X209646Y208477D01*
X210446Y207677D01*
X209646Y206877D01*
X208846Y207677D01*
X183255D02*
X184055Y208477D01*
X184855Y207677D01*
X184055Y206877D01*
X183255Y207677D01*
X208846Y225394D02*
X209646Y226194D01*
X210446Y225394D01*
X209646Y224594D01*
X208846Y225394D01*
X183255D02*
X184055Y226194D01*
X184855Y225394D01*
X184055Y224594D01*
X183255Y225394D01*
X130106Y207677D02*
X130906Y208477D01*
X131706Y207677D01*
X130906Y206877D01*
X130106Y207677D01*
X104515D02*
X105315Y208477D01*
X106115Y207677D01*
X105315Y206877D01*
X104515Y207677D01*
X130106Y225394D02*
X130906Y226194D01*
X131706Y225394D01*
X130906Y224594D01*
X130106Y225394D01*
X104515D02*
X105315Y226194D01*
X106115Y225394D01*
X105315Y224594D01*
X104515Y225394D01*
X169476Y168307D02*
X170276Y169107D01*
X171076Y168307D01*
X170276Y167507D01*
X169476Y168307D01*
X143885D02*
X144685Y169107D01*
X145485Y168307D01*
X144685Y167507D01*
X143885Y168307D01*
X169476Y186024D02*
X170276Y186824D01*
X171076Y186024D01*
X170276Y185224D01*
X169476Y186024D01*
X143885D02*
X144685Y186824D01*
X145485Y186024D01*
X144685Y185224D01*
X143885Y186024D01*
X169476Y247047D02*
X170276Y247847D01*
X171076Y247047D01*
X170276Y246247D01*
X169476Y247047D01*
X143885D02*
X144685Y247847D01*
X145485Y247047D01*
X144685Y246247D01*
X143885Y247047D01*
X169476Y264764D02*
X170276Y265564D01*
X171076Y264764D01*
X170276Y263964D01*
X169476Y264764D01*
X143885D02*
X144685Y265564D01*
X145485Y264764D01*
X144685Y263964D01*
X143885Y264764D01*
X299594Y103176D02*
X299994Y103976D01*
X299594Y104776D01*
X300394Y104376D01*
X301194Y104776D01*
X300794Y103976D01*
X301194Y103176D01*
X300394Y103576D01*
X299594Y103176D01*
Y93176D02*
X299994Y93976D01*
X299594Y94776D01*
X300394Y94376D01*
X301194Y94776D01*
X300794Y93976D01*
X301194Y93176D01*
X300394Y93576D01*
X299594Y93176D01*
Y73176D02*
X299994Y73976D01*
X299594Y74776D01*
X300394Y74376D01*
X301194Y74776D01*
X300794Y73976D01*
X301194Y73176D01*
X300394Y73576D01*
X299594Y73176D01*
Y83176D02*
X299994Y83976D01*
X299594Y84776D01*
X300394Y84376D01*
X301194Y84776D01*
X300794Y83976D01*
X301194Y83176D01*
X300394Y83576D01*
X299594Y83176D01*
X246838Y157861D02*
Y159461D01*
X248438D01*
Y157861D01*
X246838D01*
X247238Y158261D02*
Y159061D01*
X248038D01*
Y158261D01*
X247238D01*
X68098Y119092D02*
Y120692D01*
X69698D01*
Y119092D01*
X68098D01*
X68498Y119492D02*
Y120292D01*
X69298D01*
Y119492D01*
X68498D01*
D59*
X230170Y125433D02*
X229617Y126194D01*
X228723Y125903D01*
Y124963D01*
X229617Y124672D01*
X230170Y125433D01*
X220170D02*
X219617Y126194D01*
X218723Y125903D01*
Y124963D01*
X219617Y124672D01*
X220170Y125433D01*
X210170D02*
X209617Y126194D01*
X208723Y125903D01*
Y124963D01*
X209617Y124672D01*
X210170Y125433D01*
X200170D02*
X199617Y126194D01*
X198723Y125903D01*
Y124963D01*
X199617Y124672D01*
X200170Y125433D01*
X190170D02*
X189617Y126194D01*
X188723Y125903D01*
Y124963D01*
X189617Y124672D01*
X190170Y125433D01*
X180170D02*
X179617Y126194D01*
X178723Y125903D01*
Y124963D01*
X179617Y124672D01*
X180170Y125433D01*
X170170D02*
X169617Y126194D01*
X168723Y125903D01*
Y124963D01*
X169617Y124672D01*
X170170Y125433D01*
X160170D02*
X159617Y126194D01*
X158723Y125903D01*
Y124963D01*
X159617Y124672D01*
X160170Y125433D01*
X150170D02*
X149617Y126194D01*
X148723Y125903D01*
Y124963D01*
X149617Y124672D01*
X150170Y125433D01*
X140170D02*
X139617Y126194D01*
X138723Y125903D01*
Y124963D01*
X139617Y124672D01*
X140170Y125433D01*
X130170D02*
X129617Y126194D01*
X128723Y125903D01*
Y124963D01*
X129617Y124672D01*
X130170Y125433D01*
X120170D02*
X119617Y126194D01*
X118723Y125903D01*
Y124963D01*
X119617Y124672D01*
X120170Y125433D01*
X110170D02*
X109617Y126194D01*
X108723Y125903D01*
Y124963D01*
X109617Y124672D01*
X110170Y125433D01*
X100170D02*
X99617Y126194D01*
X98723Y125903D01*
Y124963D01*
X99617Y124672D01*
X100170Y125433D01*
X230170Y95433D02*
X229617Y96194D01*
X228723Y95903D01*
Y94963D01*
X229617Y94672D01*
X230170Y95433D01*
X220170D02*
X219617Y96194D01*
X218723Y95903D01*
Y94963D01*
X219617Y94672D01*
X220170Y95433D01*
X210170D02*
X209617Y96194D01*
X208723Y95903D01*
Y94963D01*
X209617Y94672D01*
X210170Y95433D01*
X200170D02*
X199617Y96194D01*
X198723Y95903D01*
Y94963D01*
X199617Y94672D01*
X200170Y95433D01*
X190170D02*
X189617Y96194D01*
X188723Y95903D01*
Y94963D01*
X189617Y94672D01*
X190170Y95433D01*
X180170D02*
X179617Y96194D01*
X178723Y95903D01*
Y94963D01*
X179617Y94672D01*
X180170Y95433D01*
X170170D02*
X169617Y96194D01*
X168723Y95903D01*
Y94963D01*
X169617Y94672D01*
X170170Y95433D01*
X160170D02*
X159617Y96194D01*
X158723Y95903D01*
Y94963D01*
X159617Y94672D01*
X160170Y95433D01*
X150170D02*
X149617Y96194D01*
X148723Y95903D01*
Y94963D01*
X149617Y94672D01*
X150170Y95433D01*
X140170D02*
X139617Y96194D01*
X138723Y95903D01*
Y94963D01*
X139617Y94672D01*
X140170Y95433D01*
X130170D02*
X129617Y96194D01*
X128723Y95903D01*
Y94963D01*
X129617Y94672D01*
X130170Y95433D01*
X120170D02*
X119617Y96194D01*
X118723Y95903D01*
Y94963D01*
X119617Y94672D01*
X120170Y95433D01*
X110170D02*
X109617Y96194D01*
X108723Y95903D01*
Y94963D01*
X109617Y94672D01*
X110170Y95433D01*
X100170D02*
X99617Y96194D01*
X98723Y95903D01*
Y94963D01*
X99617Y94672D01*
X100170Y95433D01*
X63005Y55512D02*
X62452Y56273D01*
X61558Y55982D01*
Y55042D01*
X62452Y54751D01*
X63005Y55512D01*
X76784D02*
X76231Y56273D01*
X75337Y55982D01*
Y55042D01*
X76231Y54751D01*
X76784Y55512D01*
X21666Y57087D02*
X21113Y57847D01*
X20219Y57557D01*
Y56616D01*
X21113Y56326D01*
X21666Y57087D01*
X35446D02*
X34893Y57847D01*
X33998Y57557D01*
Y56616D01*
X34893Y56326D01*
X35446Y57087D01*
X250013Y20669D02*
X249460Y21430D01*
X248565Y21139D01*
Y20199D01*
X249460Y19908D01*
X250013Y20669D01*
X263792D02*
X263239Y21430D01*
X262345Y21139D01*
Y20199D01*
X263239Y19908D01*
X263792Y20669D01*
X261036Y289567D02*
X260483Y290328D01*
X259589Y290037D01*
Y289097D01*
X260483Y288806D01*
X261036Y289567D01*
X247257D02*
X246704Y290328D01*
X245809Y290037D01*
Y289097D01*
X246704Y288806D01*
X247257Y289567D01*
M02*
