M48
;Layer_Color=9474304
;FILE_FORMAT=2:4
INCH,TZ
;TYPE=PLATED
T1F00S00C0.0276
T2F00S00C0.0280
T3F00S00C0.0315
T4F00S00C0.0335
T5F00S00C0.0354
T6F00S00C0.0390
T7F00S00C0.0413
T8F00S00C0.0433
;TYPE=NON_PLATED
T9F00S00C0.1181
%
T01
X4409Y15512
X4390Y17205
X6358
X6378Y15512
X10083Y16161
X12004
T02
X24764Y15866
X6890Y11989
T03
X4547Y1909
X3760
X3110Y27776
X3898
X4685
X28445Y27500
Y26713
X28425Y21425
Y20925
Y20425
T04
X19750Y3008
X21450
Y6008
X19750
X26417Y14638
X29508Y14583
X18050Y6008
X16299
X14409
X12500
X10748
Y3008
X12500
X14409
X16299
X18050
X12130Y17835
X9130
X8776Y25846
X7067Y27102
Y30102
X11776Y25846
X20016Y26043
X23016
X23390Y17874
X20390
X26417Y17638
X29508Y17583
T05
X24921Y2067
X26299
X22937Y9543
X21937
X20937
X19937
Y12543
X20937
X21937
X22937
X18937
X17937
X16937
X15937
X14937
X13937
X12937
X11937
X10937
X9937
Y9543
X10937
X11937
X12937
X13937
X14937
X15937
X16937
X17937
X18937
X7598Y5551
X6220
X3465Y5709
X2087
X24646Y28957
X26024
T06
X25531Y4567
Y6339
X28091
Y4567
X17028Y16831
X14468
Y18602
X17028
X18406Y20768
Y22539
X17028Y24705
Y26476
X14468
Y24705
X13091Y22539
Y20768
X10532
Y22539
X20965
Y20768
T07
X25681Y23937
X29437
T08
X12732Y1535
X13732
X14732
X15732
X16732
X17732
X18732
X30039Y7398
Y8398
Y9398
Y10398
X4130Y9980
X3130
X2130
X10791Y29803
X11791
X12791
X13791
X14791
X15791
X16791
X17791
X18791
X19791
X20791
X21791
T09
X1772Y1772
X29724
X1772Y29724
X29724
M30
