G04*
G04 #@! TF.GenerationSoftware,Altium Limited,Altium Designer,21.4.1 (30)*
G04*
G04 Layer_Color=8388736*
%FSLAX25Y25*%
%MOIN*%
G70*
G04*
G04 #@! TF.SameCoordinates,C371DEEE-1534-44D1-B208-D1612C8B0698*
G04*
G04*
G04 #@! TF.FilePolarity,Negative*
G04*
G01*
G75*
%ADD17R,0.04724X0.04724*%
%ADD18C,0.04724*%
%ADD19R,0.06706X0.06706*%
%ADD20C,0.06706*%
%ADD21C,0.00800*%
%ADD22C,0.06312*%
%ADD23C,0.07493*%
%ADD24R,0.07493X0.07493*%
%ADD25C,0.05118*%
%ADD26R,0.05118X0.05118*%
%ADD27R,0.06312X0.06312*%
%ADD28R,0.05118X0.05118*%
%ADD29C,0.06902*%
%ADD30R,0.04934X0.04934*%
%ADD31C,0.04934*%
%ADD32C,0.07099*%
%ADD33R,0.07099X0.07099*%
%ADD34C,0.06063*%
%ADD35R,0.06063X0.06063*%
%ADD36C,0.05918*%
%ADD37R,0.05918X0.05918*%
%ADD38R,0.05524X0.05524*%
%ADD39C,0.05524*%
%ADD40R,0.07099X0.07099*%
%ADD41C,0.05800*%
D17*
X43898Y172047D02*
D03*
X44094Y155118D02*
D03*
D18*
X63583Y172047D02*
D03*
X63779Y155118D02*
D03*
D19*
X229370Y125433D02*
D03*
D20*
X219370D02*
D03*
X209370D02*
D03*
X199370D02*
D03*
X189370D02*
D03*
X179370D02*
D03*
X169370D02*
D03*
X159370D02*
D03*
X149370D02*
D03*
X139370D02*
D03*
X129370D02*
D03*
X119370D02*
D03*
X109370D02*
D03*
X99370D02*
D03*
X229370Y95433D02*
D03*
X219370D02*
D03*
X209370D02*
D03*
X199370D02*
D03*
X189370D02*
D03*
X179370D02*
D03*
X169370D02*
D03*
X159370D02*
D03*
X149370D02*
D03*
X139370D02*
D03*
X129370D02*
D03*
X119370D02*
D03*
X109370D02*
D03*
X99370D02*
D03*
D21*
X17717Y17717D02*
D03*
X297244D02*
D03*
Y297244D02*
D03*
X17717D02*
D03*
D22*
X121299Y178346D02*
D03*
X91299D02*
D03*
X87756Y258465D02*
D03*
X117756D02*
D03*
X230157Y260433D02*
D03*
X200157D02*
D03*
X233898Y178740D02*
D03*
X203898D02*
D03*
X75984Y55512D02*
D03*
X34646Y57087D02*
D03*
X262992Y20669D02*
D03*
X264173Y176378D02*
D03*
Y146378D02*
D03*
X295079Y175827D02*
D03*
Y145827D02*
D03*
X246457Y289567D02*
D03*
X214496Y60079D02*
D03*
Y30079D02*
D03*
X197496Y60079D02*
D03*
Y30079D02*
D03*
X180496Y60079D02*
D03*
Y30079D02*
D03*
X162992Y60079D02*
D03*
Y30079D02*
D03*
X144094Y60079D02*
D03*
Y30079D02*
D03*
X125000Y60079D02*
D03*
Y30079D02*
D03*
X107480Y60079D02*
D03*
Y30079D02*
D03*
X70669Y301024D02*
D03*
Y271024D02*
D03*
D23*
X41299Y99803D02*
D03*
X31299D02*
D03*
D24*
X21299D02*
D03*
D25*
X45472Y19094D02*
D03*
X284449Y275000D02*
D03*
D26*
X37598Y19094D02*
D03*
D27*
X62205Y55512D02*
D03*
X20866Y57087D02*
D03*
X249213Y20669D02*
D03*
X260236Y289567D02*
D03*
D28*
X284449Y267126D02*
D03*
D29*
X256811Y239370D02*
D03*
X294370D02*
D03*
D30*
X284252Y204252D02*
D03*
D31*
Y209252D02*
D03*
Y214252D02*
D03*
D32*
X147323Y15354D02*
D03*
X167323D02*
D03*
X177323D02*
D03*
X157323D02*
D03*
X137323D02*
D03*
X127323D02*
D03*
X107913Y298031D02*
D03*
X117913D02*
D03*
X127913D02*
D03*
X147913D02*
D03*
X157913D02*
D03*
X177913D02*
D03*
X197913D02*
D03*
X207913D02*
D03*
X187913D02*
D03*
X167913D02*
D03*
X137913D02*
D03*
X300394Y103976D02*
D03*
Y93976D02*
D03*
Y83976D02*
D03*
D33*
X187323Y15354D02*
D03*
X217913Y298031D02*
D03*
D34*
X280905Y45669D02*
D03*
X255315D02*
D03*
X280905Y63386D02*
D03*
X209646Y207677D02*
D03*
X184055D02*
D03*
X209646Y225394D02*
D03*
X130906Y207677D02*
D03*
X105315D02*
D03*
X130906Y225394D02*
D03*
X170276Y168307D02*
D03*
X144685D02*
D03*
X170276Y186024D02*
D03*
Y247047D02*
D03*
X144685D02*
D03*
X170276Y264764D02*
D03*
D35*
X255315Y63386D02*
D03*
X184055Y225394D02*
D03*
X105315D02*
D03*
X144685Y186024D02*
D03*
Y264764D02*
D03*
D36*
X46850Y277756D02*
D03*
X38976D02*
D03*
D37*
X31102D02*
D03*
D38*
X120039Y161614D02*
D03*
D39*
X100827D02*
D03*
D40*
X300394Y73976D02*
D03*
D41*
X247638Y158661D02*
D03*
X68898Y119892D02*
D03*
M02*
