G04*
G04 #@! TF.GenerationSoftware,Altium Limited,Altium Designer,21.4.1 (30)*
G04*
G04 Layer_Color=8388736*
%FSLAX25Y25*%
%MOIN*%
G70*
G04*
G04 #@! TF.SameCoordinates,C371DEEE-1534-44D1-B208-D1612C8B0698*
G04*
G04*
G04 #@! TF.FilePolarity,Positive*
G04*
G01*
G75*
%ADD10C,0.00787*%
D10*
X46654Y176968D02*
X60827D01*
Y167126D02*
Y176968D01*
X46654Y167126D02*
X60827D01*
X46654D02*
Y176968D01*
X53937Y6890D02*
Y26575D01*
X29134D02*
X53937D01*
X29134Y6890D02*
Y26575D01*
Y6890D02*
X53937D01*
X276968Y283465D02*
X296654D01*
X276968Y258661D02*
Y283465D01*
Y258661D02*
X296654D01*
Y283465D01*
X255728Y42146D02*
Y66909D01*
Y42146D02*
X280492D01*
Y66909D01*
X255728D02*
X280492D01*
X46850Y150197D02*
Y160039D01*
Y150197D02*
X61024D01*
Y160039D01*
X46850D02*
X61024D01*
X184468Y204154D02*
Y228917D01*
Y204154D02*
X209232D01*
Y228917D01*
X184468D02*
X209232D01*
X105728Y204154D02*
Y228917D01*
Y204154D02*
X130492D01*
Y228917D01*
X105728D02*
X130492D01*
X145098Y164783D02*
Y189547D01*
Y164783D02*
X169862D01*
Y189547D01*
X145098D02*
X169862D01*
X145098Y243524D02*
Y268287D01*
Y243524D02*
X169862D01*
Y268287D01*
X145098D02*
X169862D01*
M02*
