G04*
G04 #@! TF.GenerationSoftware,Altium Limited,Altium Designer,21.4.1 (30)*
G04*
G04 Layer_Physical_Order=1*
G04 Layer_Color=255*
%FSLAX25Y25*%
%MOIN*%
G70*
G04*
G04 #@! TF.SameCoordinates,C371DEEE-1534-44D1-B208-D1612C8B0698*
G04*
G04*
G04 #@! TF.FilePolarity,Positive*
G04*
G01*
G75*
%ADD12C,0.02362*%
%ADD17R,0.04724X0.04724*%
%ADD18C,0.04724*%
%ADD25C,0.05118*%
%ADD26R,0.05118X0.05118*%
%ADD28R,0.05118X0.05118*%
%ADD34C,0.06063*%
%ADD35R,0.06063X0.06063*%
%ADD42C,0.03543*%
%ADD43R,0.05906X0.05906*%
%ADD44C,0.05906*%
%ADD45C,0.05512*%
%ADD46C,0.06693*%
%ADD47R,0.06693X0.06693*%
%ADD48R,0.05512X0.05512*%
%ADD49C,0.06102*%
%ADD50R,0.04134X0.04134*%
%ADD51C,0.04134*%
%ADD52C,0.06299*%
%ADD53R,0.06299X0.06299*%
%ADD54R,0.06299X0.06299*%
%ADD55C,0.05000*%
G36*
X315158Y-394D02*
X314657Y-394D01*
X197D01*
X197Y314067D01*
X697Y314567D01*
X315158D01*
Y-394D01*
D02*
G37*
%LPC*%
G36*
X157413Y302181D02*
X157367D01*
X156312Y301898D01*
X155804Y301605D01*
X150022D01*
X149515Y301898D01*
X148460Y302181D01*
X148413D01*
Y298031D01*
Y293882D01*
X148460D01*
X149515Y294165D01*
X150022Y294458D01*
X155804D01*
X156312Y294165D01*
X157367Y293882D01*
X157413D01*
Y298031D01*
Y302181D01*
D02*
G37*
G36*
X71343Y306142D02*
X69995D01*
X68694Y305793D01*
X67527Y305119D01*
X66574Y304166D01*
X65900Y302999D01*
X65551Y301697D01*
Y300350D01*
X65900Y299048D01*
X66574Y297881D01*
X67527Y296928D01*
X68694Y296254D01*
X69995Y295905D01*
X71343D01*
X72645Y296254D01*
X73812Y296928D01*
X74765Y297881D01*
X75438Y299048D01*
X75787Y300350D01*
Y301697D01*
X75438Y302999D01*
X74765Y304166D01*
X73812Y305119D01*
X72645Y305793D01*
X71343Y306142D01*
D02*
G37*
G36*
X129634Y309885D02*
X107087D01*
X106162Y309763D01*
X105300Y309406D01*
X104560Y308838D01*
X97759Y302038D01*
X97192Y301298D01*
X96834Y300436D01*
X96713Y299511D01*
Y272476D01*
X86276Y262038D01*
X51874D01*
X41157Y272755D01*
X41240Y273380D01*
X41998Y273818D01*
X42913Y274733D01*
X43829Y273818D01*
X44951Y273170D01*
X46202Y272835D01*
X46717D01*
X51056Y268496D01*
X51796Y267929D01*
X52658Y267571D01*
X53583Y267450D01*
X67005D01*
X67527Y266928D01*
X68694Y266254D01*
X69995Y265905D01*
X71343D01*
X72645Y266254D01*
X73812Y266928D01*
X74765Y267881D01*
X75438Y269048D01*
X75787Y270350D01*
Y271697D01*
X75438Y272999D01*
X74765Y274166D01*
X73812Y275119D01*
X72645Y275793D01*
X71343Y276142D01*
X69995D01*
X68694Y275793D01*
X67527Y275119D01*
X67005Y274598D01*
X55063D01*
X51772Y277889D01*
Y278404D01*
X51436Y279655D01*
X50788Y280778D01*
X49872Y281694D01*
X48750Y282342D01*
X47498Y282677D01*
X46202D01*
X44951Y282342D01*
X43829Y281694D01*
X42913Y280779D01*
X41998Y281694D01*
X40876Y282342D01*
X39624Y282677D01*
X38328D01*
X37077Y282342D01*
X35955Y281694D01*
X35162Y280901D01*
X34661Y281075D01*
Y281315D01*
X31215D01*
X31102Y281330D01*
X30990Y281315D01*
X27543D01*
Y277868D01*
X27529Y277756D01*
Y267913D01*
X27650Y266988D01*
X28007Y266126D01*
X28575Y265386D01*
X60009Y233953D01*
Y172047D01*
Y163608D01*
X60131Y162683D01*
X60206Y162502D01*
Y155118D01*
Y133764D01*
X30542Y104100D01*
X29621Y103853D01*
X28630Y103281D01*
X27821Y102472D01*
X27508Y101929D01*
X27008Y102063D01*
Y105512D01*
X15591D01*
Y94095D01*
X17130D01*
Y62205D01*
X15748D01*
Y51968D01*
X16697D01*
Y35827D01*
X16697Y35827D01*
X16839Y34747D01*
X17255Y33742D01*
X17918Y32878D01*
X32677Y18119D01*
Y14173D01*
X42520D01*
Y16381D01*
X43020Y16510D01*
X43035Y16498D01*
X43287Y16247D01*
X43595Y16069D01*
X43685Y15999D01*
X43790Y15956D01*
X44099Y15778D01*
X44442Y15686D01*
X44547Y15642D01*
X44660Y15628D01*
X45004Y15535D01*
X45360D01*
X45472Y15521D01*
X45585Y15535D01*
X45941D01*
X46285Y15628D01*
X46397Y15642D01*
X46502Y15686D01*
X46846Y15778D01*
X47155Y15956D01*
X47259Y15999D01*
X47349Y16069D01*
X47658Y16247D01*
X47909Y16498D01*
X48000Y16567D01*
X48069Y16657D01*
X48320Y16909D01*
X48498Y17217D01*
X48568Y17308D01*
X48611Y17412D01*
X48789Y17721D01*
X48881Y18065D01*
X48924Y18169D01*
X48939Y18282D01*
X49031Y18626D01*
Y18982D01*
X49046Y19094D01*
X49031Y19207D01*
Y19563D01*
X48939Y19907D01*
X48924Y20019D01*
X48881Y20124D01*
X48789Y20468D01*
X48611Y20776D01*
X48568Y20881D01*
X48498Y20971D01*
X48320Y21280D01*
X48069Y21531D01*
X48000Y21621D01*
X45544Y24077D01*
X45434Y24344D01*
X44866Y25084D01*
X44546Y25403D01*
X44546Y25403D01*
X43588Y26362D01*
X42848Y26930D01*
X42581Y27040D01*
X38219Y31402D01*
Y47835D01*
X38719Y47979D01*
X39371Y47480D01*
X40232Y47123D01*
X41157Y47001D01*
X71047D01*
X71972Y47123D01*
X72834Y47480D01*
X73574Y48048D01*
X77681Y52155D01*
X78290Y52506D01*
X78990Y53206D01*
X79484Y54062D01*
X79651Y54685D01*
X80209Y54835D01*
X89560Y45484D01*
X89560Y45484D01*
X90300Y44916D01*
X91162Y44559D01*
X92087Y44437D01*
X92087Y44437D01*
X132027D01*
X132952Y44559D01*
X133814Y44916D01*
X134554Y45484D01*
X144030Y54961D01*
X144768D01*
X146070Y55309D01*
X147237Y55983D01*
X148190Y56936D01*
X148864Y58103D01*
X148983Y58548D01*
X149466Y58678D01*
X162660Y45484D01*
X163400Y44916D01*
X164262Y44559D01*
X165187Y44437D01*
X223387D01*
X224312Y44559D01*
X225173Y44916D01*
X225914Y45484D01*
X233767Y53337D01*
X261487D01*
X262412Y53459D01*
X263274Y53816D01*
X264014Y54384D01*
X264582Y55124D01*
X264939Y55986D01*
X265060Y56911D01*
Y141317D01*
X266149Y141609D01*
X267316Y142282D01*
X268269Y143235D01*
X268942Y144403D01*
X269291Y145704D01*
Y147052D01*
X268942Y148354D01*
X268269Y149521D01*
X267316Y150473D01*
X266149Y151147D01*
X264847Y151496D01*
X263499D01*
X262198Y151147D01*
X261031Y150473D01*
X260078Y149521D01*
X259404Y148354D01*
X259055Y147052D01*
Y146314D01*
X258960Y146219D01*
X258392Y145478D01*
X258034Y144616D01*
X257913Y143691D01*
Y102652D01*
X257413Y102445D01*
X234685Y125172D01*
Y130748D01*
X224055D01*
Y128861D01*
X223555Y128765D01*
X222944Y129376D01*
Y276575D01*
X222822Y277500D01*
X222465Y278362D01*
X221897Y279102D01*
X208921Y292078D01*
X209071Y292635D01*
X210041Y292895D01*
X211298Y293621D01*
X211902Y294225D01*
X212402Y294018D01*
Y292520D01*
X223425D01*
Y303543D01*
X212402D01*
Y302045D01*
X211902Y301838D01*
X211298Y302442D01*
X210041Y303168D01*
X208639Y303543D01*
X207188D01*
X205786Y303168D01*
X204529Y302442D01*
X203503Y301416D01*
X203163Y300828D01*
X202663D01*
X202324Y301416D01*
X201298Y302442D01*
X200041Y303168D01*
X198639Y303543D01*
X197188D01*
X195786Y303168D01*
X194529Y302442D01*
X193503Y301416D01*
X193163Y300828D01*
X192663D01*
X192324Y301416D01*
X191298Y302442D01*
X190041Y303168D01*
X188639Y303543D01*
X187188D01*
X185786Y303168D01*
X184529Y302442D01*
X183503Y301416D01*
X183163Y300828D01*
X182663D01*
X182324Y301416D01*
X181298Y302442D01*
X180041Y303168D01*
X178639Y303543D01*
X177188D01*
X175786Y303168D01*
X174529Y302442D01*
X173503Y301416D01*
X173163Y300828D01*
X172663D01*
X172324Y301416D01*
X171298Y302442D01*
X170041Y303168D01*
X168639Y303543D01*
X167188D01*
X165786Y303168D01*
X164529Y302442D01*
X163503Y301416D01*
X162777Y300159D01*
X162467Y299002D01*
X161950D01*
X161780Y299633D01*
X161234Y300579D01*
X160461Y301352D01*
X159515Y301898D01*
X158460Y302181D01*
X158413D01*
Y298031D01*
Y293882D01*
X158460D01*
X159515Y294165D01*
X160461Y294711D01*
X161234Y295483D01*
X161780Y296430D01*
X161950Y297061D01*
X162467D01*
X162777Y295904D01*
X163503Y294647D01*
X164529Y293621D01*
X165786Y292895D01*
X167188Y292520D01*
X168639D01*
X170041Y292895D01*
X171298Y293621D01*
X172324Y294647D01*
X172663Y295235D01*
X173163D01*
X173503Y294647D01*
X174529Y293621D01*
X175786Y292895D01*
X177188Y292520D01*
X178371D01*
X185713Y285178D01*
Y230787D01*
X178662D01*
Y225054D01*
X167748Y214141D01*
X167181Y213401D01*
X166823Y212539D01*
X166702Y211614D01*
Y190078D01*
X165960Y189335D01*
X165250Y188105D01*
X164882Y186734D01*
Y185684D01*
X162460Y183262D01*
X161892Y182522D01*
X161535Y181660D01*
X161413Y180735D01*
Y129817D01*
X161473Y129361D01*
X161009Y129051D01*
X160896Y129117D01*
X159891Y129386D01*
X159870D01*
Y125433D01*
X159370D01*
Y124933D01*
X155418D01*
Y124913D01*
X155687Y123907D01*
X155796Y123718D01*
Y105433D01*
X155918Y104508D01*
X156275Y103646D01*
X156843Y102906D01*
X158523Y101226D01*
X158373Y100669D01*
X157319Y100386D01*
X156107Y99686D01*
X155117Y98697D01*
X154659Y97903D01*
X154081D01*
X153623Y98697D01*
X152634Y99686D01*
X151422Y100386D01*
X150070Y100748D01*
X148670D01*
X147319Y100386D01*
X146107Y99686D01*
X145117Y98697D01*
X144659Y97903D01*
X144081D01*
X143623Y98697D01*
X142634Y99686D01*
X141422Y100386D01*
X140070Y100748D01*
X138671D01*
X137319Y100386D01*
X136107Y99686D01*
X135117Y98697D01*
X134659Y97903D01*
X134081D01*
X133623Y98697D01*
X132634Y99686D01*
X131422Y100386D01*
X130070Y100748D01*
X129110D01*
X110217Y119640D01*
X110367Y120198D01*
X111422Y120481D01*
X112634Y121180D01*
X113623Y122170D01*
X114082Y122964D01*
X114659D01*
X115117Y122170D01*
X116107Y121180D01*
X117319Y120481D01*
X118670Y120118D01*
X120070D01*
X121422Y120481D01*
X122634Y121180D01*
X123623Y122170D01*
X124082Y122964D01*
X124659D01*
X125117Y122170D01*
X126107Y121180D01*
X127319Y120481D01*
X128671Y120118D01*
X130070D01*
X131422Y120481D01*
X132634Y121180D01*
X133623Y122170D01*
X134081Y122964D01*
X134659D01*
X135117Y122170D01*
X136107Y121180D01*
X137319Y120481D01*
X138671Y120118D01*
X140070D01*
X141422Y120481D01*
X142634Y121180D01*
X143623Y122170D01*
X144081Y122964D01*
X144659D01*
X145117Y122170D01*
X146107Y121180D01*
X147319Y120481D01*
X148670Y120118D01*
X150070D01*
X151422Y120481D01*
X152634Y121180D01*
X153623Y122170D01*
X154323Y123382D01*
X154685Y124733D01*
Y126133D01*
X154323Y127485D01*
X153623Y128697D01*
X152634Y129686D01*
X151422Y130386D01*
X150070Y130748D01*
X148670D01*
X147319Y130386D01*
X146107Y129686D01*
X145117Y128697D01*
X144659Y127903D01*
X144081D01*
X143623Y128697D01*
X142634Y129686D01*
X141422Y130386D01*
X140070Y130748D01*
X138671D01*
X137319Y130386D01*
X136107Y129686D01*
X135117Y128697D01*
X134659Y127903D01*
X134081D01*
X133623Y128697D01*
X132944Y129376D01*
Y189227D01*
X132944Y189227D01*
X132822Y190152D01*
X132465Y191014D01*
X131897Y191754D01*
X129261Y194391D01*
Y202123D01*
X129657Y202428D01*
X130195Y202284D01*
X131616D01*
X132987Y202651D01*
X134217Y203361D01*
X135222Y204365D01*
X135932Y205595D01*
X136299Y206967D01*
Y208387D01*
X135932Y209759D01*
X135222Y210989D01*
X134217Y211993D01*
X132987Y212703D01*
X131616Y213071D01*
X130195D01*
X129657Y212927D01*
X129261Y213231D01*
Y219840D01*
X129657Y220144D01*
X130195Y220000D01*
X131245D01*
X141111Y210134D01*
Y191417D01*
X139291D01*
Y180630D01*
X150079D01*
Y191417D01*
X148259D01*
Y211614D01*
X148137Y212539D01*
X147780Y213401D01*
X147212Y214141D01*
X147212Y214141D01*
X136299Y225054D01*
Y225733D01*
X141914Y231347D01*
X141914Y231347D01*
X142482Y232088D01*
X142839Y232950D01*
X142961Y233875D01*
X142961Y233875D01*
Y241515D01*
X143357Y241819D01*
X143975Y241653D01*
X145395D01*
X146767Y242021D01*
X147997Y242731D01*
X149001Y243735D01*
X149711Y244965D01*
X150079Y246337D01*
Y247757D01*
X149711Y249129D01*
X149001Y250359D01*
X147997Y251363D01*
X146767Y252073D01*
X145395Y252441D01*
X143975D01*
X143357Y252275D01*
X142961Y252580D01*
Y257985D01*
X144345Y259370D01*
X150079D01*
Y270158D01*
X139291D01*
Y264424D01*
X136860Y261993D01*
X136292Y261252D01*
X135934Y260390D01*
X135813Y259465D01*
Y235355D01*
X131245Y230787D01*
X130195D01*
X129657Y230643D01*
X129261Y230947D01*
Y240731D01*
X130440Y241911D01*
X131009Y242651D01*
X131366Y243513D01*
X131487Y244438D01*
Y293810D01*
X132324Y294647D01*
X133050Y295904D01*
X133309Y296874D01*
X133867Y297023D01*
X133895Y296996D01*
X134047Y296430D01*
X134593Y295483D01*
X135365Y294711D01*
X136312Y294165D01*
X137367Y293882D01*
X137413D01*
Y298031D01*
X138413D01*
Y293882D01*
X138460D01*
X139515Y294165D01*
X140023Y294458D01*
X145804D01*
X146312Y294165D01*
X147367Y293882D01*
X147413D01*
Y298031D01*
Y302181D01*
X147367D01*
X146312Y301898D01*
X145804Y301605D01*
X140023D01*
X139515Y301898D01*
X138949Y302050D01*
X132161Y308838D01*
X131421Y309406D01*
X130559Y309763D01*
X129634Y309885D01*
D02*
G37*
G36*
X298058Y305512D02*
X296430D01*
X294832Y305194D01*
X293328Y304571D01*
X291974Y303666D01*
X290822Y302514D01*
X289917Y301160D01*
X289294Y299656D01*
X288976Y298058D01*
Y296430D01*
X289294Y294832D01*
X289917Y293328D01*
X290822Y291974D01*
X291974Y290822D01*
X293328Y289917D01*
X294832Y289294D01*
X296430Y288976D01*
X298058D01*
X299656Y289294D01*
X301160Y289917D01*
X302514Y290822D01*
X303666Y291974D01*
X304571Y293328D01*
X305194Y294832D01*
X305512Y296430D01*
Y298058D01*
X305194Y299656D01*
X304571Y301160D01*
X303666Y302514D01*
X302514Y303666D01*
X301160Y304571D01*
X299656Y305194D01*
X298058Y305512D01*
D02*
G37*
G36*
X18531D02*
X16902D01*
X15305Y305194D01*
X13800Y304571D01*
X12446Y303666D01*
X11295Y302514D01*
X10390Y301160D01*
X9767Y299656D01*
X9449Y298058D01*
Y296430D01*
X9767Y294832D01*
X10390Y293328D01*
X11295Y291974D01*
X12446Y290822D01*
X13800Y289917D01*
X15305Y289294D01*
X16902Y288976D01*
X18531D01*
X20128Y289294D01*
X21633Y289917D01*
X22987Y290822D01*
X24138Y291974D01*
X25043Y293328D01*
X25666Y294832D01*
X25984Y296430D01*
Y298058D01*
X25666Y299656D01*
X25043Y301160D01*
X24138Y302514D01*
X22987Y303666D01*
X21633Y304571D01*
X20128Y305194D01*
X18531Y305512D01*
D02*
G37*
G36*
X245957Y289067D02*
X242702D01*
X242957Y288117D01*
X243451Y287261D01*
X244150Y286561D01*
X245007Y286067D01*
X245957Y285813D01*
Y289067D01*
D02*
G37*
G36*
X170986Y270158D02*
X169565D01*
X168194Y269790D01*
X166964Y269080D01*
X165960Y268076D01*
X165250Y266846D01*
X164882Y265474D01*
Y264054D01*
X165250Y262682D01*
X165960Y261452D01*
X166964Y260448D01*
X168194Y259738D01*
X169565Y259370D01*
X170986D01*
X172357Y259738D01*
X173587Y260448D01*
X174592Y261452D01*
X175302Y262682D01*
X175669Y264054D01*
Y265474D01*
X175302Y266846D01*
X174592Y268076D01*
X173587Y269080D01*
X172357Y269790D01*
X170986Y270158D01*
D02*
G37*
G36*
Y252441D02*
X169565D01*
X168194Y252073D01*
X166964Y251363D01*
X165960Y250359D01*
X165250Y249129D01*
X164882Y247757D01*
Y246337D01*
X165250Y244965D01*
X165960Y243735D01*
X166964Y242731D01*
X168194Y242021D01*
X169565Y241653D01*
X170986D01*
X172357Y242021D01*
X173587Y242731D01*
X174592Y243735D01*
X175302Y244965D01*
X175669Y246337D01*
Y247757D01*
X175302Y249129D01*
X174592Y250359D01*
X173587Y251363D01*
X172357Y252073D01*
X170986Y252441D01*
D02*
G37*
G36*
X251394Y298078D02*
X250469Y297956D01*
X249607Y297599D01*
X248867Y297031D01*
X244759Y292924D01*
X244150Y292572D01*
X243451Y291873D01*
X242957Y291017D01*
X242702Y290067D01*
X246457D01*
Y289567D01*
X246957D01*
Y285813D01*
X247906Y286067D01*
X248763Y286561D01*
X249462Y287261D01*
X249814Y287870D01*
X252874Y290930D01*
X255118D01*
Y284449D01*
X260300D01*
X268013Y276736D01*
Y180430D01*
X267551Y180238D01*
X267316Y180473D01*
X266149Y181147D01*
X264847Y181496D01*
X263499D01*
X262198Y181147D01*
X261031Y180473D01*
X260078Y179521D01*
X259404Y178354D01*
X259055Y177052D01*
Y175704D01*
X259404Y174402D01*
X260078Y173235D01*
X261031Y172283D01*
X262198Y171609D01*
X263499Y171260D01*
X264847D01*
X266149Y171609D01*
X267316Y172283D01*
X267551Y172518D01*
X268013Y172326D01*
Y169319D01*
X268134Y168394D01*
X268492Y167532D01*
X269059Y166792D01*
X289961Y145891D01*
Y145153D01*
X290310Y143851D01*
X290983Y142684D01*
X291936Y141731D01*
X293103Y141058D01*
X294405Y140709D01*
X295753D01*
X296116Y140806D01*
X296513Y140502D01*
Y133591D01*
X292460Y129538D01*
X291892Y128798D01*
X291534Y127936D01*
X291413Y127011D01*
Y79383D01*
X291534Y78458D01*
X291892Y77596D01*
X292460Y76856D01*
X294882Y74434D01*
Y68465D01*
X299156D01*
X299341Y68000D01*
X279808Y49549D01*
X279349Y49426D01*
X278430Y48895D01*
X277679Y48145D01*
X277149Y47225D01*
X276874Y46200D01*
Y46169D01*
X280905D01*
Y45669D01*
X281405D01*
Y41638D01*
X281436D01*
X282462Y41913D01*
X283381Y42443D01*
X284131Y43194D01*
X284662Y44113D01*
X284730Y44366D01*
X305741Y64213D01*
X305773Y64253D01*
X305814Y64284D01*
X308314Y66784D01*
X308314Y66784D01*
X308882Y67524D01*
X309239Y68386D01*
X309361Y69311D01*
Y103976D01*
Y193725D01*
X309361Y193725D01*
X309239Y194650D01*
X308882Y195512D01*
X308314Y196252D01*
X288539Y216027D01*
X287826Y216574D01*
Y259120D01*
X287704Y260045D01*
X287347Y260907D01*
X286779Y261647D01*
X286684Y261743D01*
X286875Y262205D01*
X289370D01*
Y267009D01*
X289832Y267200D01*
X290796Y266236D01*
Y243452D01*
X290038Y242694D01*
X289325Y241459D01*
X288957Y240083D01*
Y238657D01*
X289325Y237281D01*
X290038Y236046D01*
X291046Y235038D01*
X292281Y234326D01*
X293657Y233957D01*
X295083D01*
X296460Y234326D01*
X297694Y235038D01*
X298702Y236046D01*
X299414Y237281D01*
X299783Y238657D01*
Y240083D01*
X299414Y241459D01*
X298702Y242694D01*
X297944Y243452D01*
Y267717D01*
X297822Y268642D01*
X297465Y269504D01*
X296897Y270244D01*
X289614Y277527D01*
X288874Y278095D01*
X288012Y278452D01*
X287948Y278461D01*
X287471Y278938D01*
X286348Y279586D01*
X285097Y279921D01*
X283801D01*
X282549Y279586D01*
X281427Y278938D01*
X280511Y278022D01*
X279863Y276900D01*
X279597Y275909D01*
X279098Y275975D01*
Y282876D01*
X279098Y282876D01*
X278976Y283801D01*
X278619Y284663D01*
X278051Y285403D01*
X278051Y285403D01*
X266423Y297031D01*
X265683Y297599D01*
X264821Y297956D01*
X263896Y298078D01*
X251394D01*
X251394Y298078D01*
D02*
G37*
G36*
X230831Y265551D02*
X229484D01*
X228182Y265202D01*
X227015Y264528D01*
X226062Y263576D01*
X225388Y262408D01*
X225039Y261107D01*
Y259759D01*
X225388Y258457D01*
X226062Y257290D01*
X227015Y256337D01*
X228182Y255664D01*
X229484Y255315D01*
X230221D01*
X244064Y241472D01*
Y161964D01*
X243747Y161647D01*
X243107Y160538D01*
X242776Y159301D01*
Y158021D01*
X243107Y156785D01*
X243747Y155676D01*
X244652Y154771D01*
X245761Y154131D01*
X246998Y153799D01*
X248278D01*
X249515Y154131D01*
X250623Y154771D01*
X251529Y155676D01*
X252169Y156785D01*
X252500Y158021D01*
Y159301D01*
X252169Y160538D01*
X251529Y161647D01*
X251212Y161964D01*
Y237420D01*
X251712Y237485D01*
X251766Y237281D01*
X252479Y236046D01*
X253487Y235038D01*
X254721Y234326D01*
X256098Y233957D01*
X257524D01*
X258900Y234326D01*
X260135Y235038D01*
X261143Y236046D01*
X261856Y237281D01*
X262224Y238657D01*
Y240083D01*
X261856Y241459D01*
X261143Y242694D01*
X260135Y243702D01*
X258900Y244414D01*
X257524Y244783D01*
X256098D01*
X254721Y244414D01*
X253487Y243702D01*
X252479Y242694D01*
X251766Y241459D01*
X251712Y241255D01*
X251212Y241321D01*
Y242953D01*
X251090Y243878D01*
X250733Y244740D01*
X250165Y245480D01*
X250165Y245480D01*
X235276Y260369D01*
Y261107D01*
X234927Y262408D01*
X234253Y263576D01*
X233300Y264528D01*
X232133Y265202D01*
X230831Y265551D01*
D02*
G37*
G36*
X234571Y183858D02*
X233224D01*
X231922Y183510D01*
X230755Y182836D01*
X229802Y181883D01*
X229128Y180716D01*
X228780Y179414D01*
Y178066D01*
X229128Y176765D01*
X229802Y175598D01*
X230755Y174645D01*
X231922Y173971D01*
X233224Y173622D01*
X234571D01*
X235873Y173971D01*
X237040Y174645D01*
X237993Y175598D01*
X238667Y176765D01*
X239016Y178066D01*
Y179414D01*
X238667Y180716D01*
X237993Y181883D01*
X237040Y182836D01*
X235873Y183510D01*
X234571Y183858D01*
D02*
G37*
G36*
X48622Y176772D02*
X39173D01*
Y167323D01*
X48622D01*
Y176772D01*
D02*
G37*
G36*
X145395Y173701D02*
X143975D01*
X142603Y173333D01*
X141373Y172623D01*
X140369Y171619D01*
X139659Y170389D01*
X139291Y169017D01*
Y167597D01*
X139659Y166225D01*
X140369Y164995D01*
X141373Y163991D01*
X142603Y163281D01*
X143975Y162913D01*
X145395D01*
X146767Y163281D01*
X147997Y163991D01*
X149001Y164995D01*
X149711Y166225D01*
X150079Y167597D01*
Y169017D01*
X149711Y170389D01*
X149001Y171619D01*
X147997Y172623D01*
X146767Y173333D01*
X145395Y173701D01*
D02*
G37*
G36*
X48819Y159842D02*
X39370D01*
Y150394D01*
X48819D01*
Y159842D01*
D02*
G37*
G36*
X158870Y129386D02*
X158850D01*
X157844Y129117D01*
X156943Y128596D01*
X156207Y127860D01*
X155687Y126959D01*
X155418Y125954D01*
Y125933D01*
X158870D01*
Y129386D01*
D02*
G37*
G36*
X281615Y68779D02*
X280195D01*
X278823Y68412D01*
X277594Y67702D01*
X276589Y66698D01*
X275879Y65468D01*
X275512Y64096D01*
Y62676D01*
X275879Y61304D01*
X276589Y60074D01*
X277594Y59070D01*
X278823Y58360D01*
X280195Y57992D01*
X281615D01*
X282987Y58360D01*
X284217Y59070D01*
X285221Y60074D01*
X285931Y61304D01*
X286299Y62676D01*
Y64096D01*
X285931Y65468D01*
X285221Y66698D01*
X284217Y67702D01*
X282987Y68412D01*
X281615Y68779D01*
D02*
G37*
G36*
X255846Y49701D02*
X255815D01*
Y46169D01*
X259347D01*
Y46200D01*
X259072Y47225D01*
X258541Y48145D01*
X257790Y48895D01*
X256871Y49426D01*
X255846Y49701D01*
D02*
G37*
G36*
X254815D02*
X254784D01*
X253759Y49426D01*
X252840Y48895D01*
X252089Y48145D01*
X251558Y47225D01*
X251284Y46200D01*
Y46169D01*
X254815D01*
Y49701D01*
D02*
G37*
G36*
X280405Y45169D02*
X276874D01*
Y45139D01*
X277149Y44113D01*
X277679Y43194D01*
X278430Y42443D01*
X279349Y41913D01*
X280375Y41638D01*
X280405D01*
Y45169D01*
D02*
G37*
G36*
X215170Y35197D02*
X213822D01*
X212521Y34848D01*
X211353Y34174D01*
X210401Y33221D01*
X209727Y32054D01*
X209378Y30753D01*
Y30015D01*
X198291Y18928D01*
X192835D01*
Y20866D01*
X188542D01*
X188351Y21328D01*
X192925Y25902D01*
X194494D01*
X195520Y25310D01*
X196822Y24961D01*
X198170D01*
X199471Y25310D01*
X200639Y25983D01*
X201591Y26936D01*
X202265Y28103D01*
X202614Y29405D01*
Y30753D01*
X202265Y32054D01*
X201591Y33221D01*
X200639Y34174D01*
X199471Y34848D01*
X198170Y35197D01*
X196822D01*
X195520Y34848D01*
X194353Y34174D01*
X193401Y33221D01*
X193302Y33050D01*
X191445D01*
X190520Y32928D01*
X189658Y32571D01*
X188918Y32003D01*
X186039Y29125D01*
X185703Y29319D01*
X185614Y29407D01*
Y30753D01*
X185265Y32054D01*
X184591Y33221D01*
X183639Y34174D01*
X182472Y34848D01*
X181170Y35197D01*
X179822D01*
X178521Y34848D01*
X177353Y34174D01*
X176400Y33221D01*
X175727Y32054D01*
X175378Y30753D01*
Y29405D01*
X175577Y28663D01*
X167780Y20866D01*
X167050D01*
X166587Y21017D01*
X166566Y21336D01*
Y26415D01*
X167088Y26936D01*
X167762Y28103D01*
X168110Y29405D01*
Y30753D01*
X167762Y32054D01*
X167088Y33221D01*
X166135Y34174D01*
X164968Y34848D01*
X163666Y35197D01*
X162318D01*
X161017Y34848D01*
X159850Y34174D01*
X158897Y33221D01*
X158223Y32054D01*
X157874Y30753D01*
Y29405D01*
X158223Y28103D01*
X158897Y26936D01*
X159418Y26415D01*
Y22504D01*
X157780Y20866D01*
X156597D01*
X155195Y20491D01*
X153938Y19765D01*
X152912Y18739D01*
X152573Y18151D01*
X152073D01*
X151733Y18739D01*
X150707Y19765D01*
X149450Y20491D01*
X148048Y20866D01*
X147668D01*
Y26415D01*
X148190Y26936D01*
X148864Y28103D01*
X149213Y29405D01*
Y30753D01*
X148864Y32054D01*
X148190Y33221D01*
X147237Y34174D01*
X146070Y34848D01*
X144768Y35197D01*
X143421D01*
X142119Y34848D01*
X140952Y34174D01*
X139999Y33221D01*
X139325Y32054D01*
X138976Y30753D01*
Y29405D01*
X139143Y28784D01*
X138694Y28525D01*
X134614Y32606D01*
X133874Y33174D01*
X133012Y33531D01*
X132087Y33653D01*
X128664D01*
X128143Y34174D01*
X126976Y34848D01*
X125674Y35197D01*
X124326D01*
X123024Y34848D01*
X121857Y34174D01*
X120905Y33221D01*
X120231Y32054D01*
X119882Y30753D01*
Y29405D01*
X120192Y28246D01*
X119744Y27987D01*
X115728Y32003D01*
X114988Y32571D01*
X114126Y32928D01*
X113201Y33050D01*
X111675D01*
X111576Y33221D01*
X110623Y34174D01*
X109456Y34848D01*
X108154Y35197D01*
X106807D01*
X105505Y34848D01*
X104338Y34174D01*
X103385Y33221D01*
X102711Y32054D01*
X102362Y30753D01*
Y29405D01*
X102711Y28103D01*
X103385Y26936D01*
X104338Y25983D01*
X105505Y25310D01*
X106807Y24961D01*
X108154D01*
X109456Y25310D01*
X110483Y25902D01*
X111721D01*
X121811Y15812D01*
Y14629D01*
X122187Y13227D01*
X122912Y11970D01*
X123939Y10944D01*
X125195Y10218D01*
X126597Y9843D01*
X128049D01*
X129450Y10218D01*
X130707Y10944D01*
X131733Y11970D01*
X132073Y12558D01*
X132573D01*
X132912Y11970D01*
X133939Y10944D01*
X135195Y10218D01*
X136597Y9843D01*
X138049D01*
X139450Y10218D01*
X140707Y10944D01*
X141733Y11970D01*
X142073Y12558D01*
X142573D01*
X142912Y11970D01*
X143939Y10944D01*
X145195Y10218D01*
X146597Y9843D01*
X148048D01*
X149450Y10218D01*
X150707Y10944D01*
X151733Y11970D01*
X152073Y12558D01*
X152573D01*
X152912Y11970D01*
X153938Y10944D01*
X155195Y10218D01*
X156597Y9843D01*
X158048D01*
X159450Y10218D01*
X160707Y10944D01*
X161733Y11970D01*
X162073Y12558D01*
X162573D01*
X162912Y11970D01*
X163938Y10944D01*
X165195Y10218D01*
X166597Y9843D01*
X168049D01*
X169450Y10218D01*
X170707Y10944D01*
X171733Y11970D01*
X172073Y12558D01*
X172573D01*
X172912Y11970D01*
X173939Y10944D01*
X175195Y10218D01*
X176597Y9843D01*
X178049D01*
X179450Y10218D01*
X180707Y10944D01*
X181311Y11548D01*
X181811Y11341D01*
Y9843D01*
X192835D01*
Y11780D01*
X199772D01*
X200697Y11902D01*
X201558Y12259D01*
X202299Y12827D01*
X214432Y24961D01*
X215170D01*
X216472Y25310D01*
X217639Y25983D01*
X218591Y26936D01*
X219265Y28103D01*
X219614Y29405D01*
Y30753D01*
X219265Y32054D01*
X218591Y33221D01*
X217639Y34174D01*
X216472Y34848D01*
X215170Y35197D01*
D02*
G37*
G36*
X266746Y20169D02*
X263492D01*
Y16915D01*
X264442Y17169D01*
X265298Y17664D01*
X265998Y18363D01*
X266492Y19219D01*
X266746Y20169D01*
D02*
G37*
G36*
X259347Y45169D02*
X251284D01*
Y45139D01*
X251558Y44113D01*
X251741Y43797D01*
Y28346D01*
X251863Y27421D01*
X252220Y26559D01*
X252429Y26287D01*
X252182Y25787D01*
X244094D01*
Y15551D01*
X254331D01*
Y23623D01*
X254793Y23814D01*
X259635Y18972D01*
X259986Y18363D01*
X260686Y17664D01*
X261542Y17169D01*
X262492Y16915D01*
Y20669D01*
X262992D01*
Y21169D01*
X266746D01*
X266492Y22119D01*
X265998Y22975D01*
X265298Y23675D01*
X264689Y24026D01*
X258889Y29827D01*
Y43797D01*
X259072Y44113D01*
X259347Y45139D01*
Y45169D01*
D02*
G37*
G36*
X298058Y25984D02*
X296430D01*
X294832Y25666D01*
X293328Y25043D01*
X291974Y24138D01*
X290822Y22987D01*
X289917Y21633D01*
X289294Y20128D01*
X288976Y18531D01*
Y16902D01*
X289294Y15305D01*
X289917Y13800D01*
X290822Y12446D01*
X291974Y11295D01*
X293328Y10390D01*
X294832Y9767D01*
X296430Y9449D01*
X298058D01*
X299656Y9767D01*
X301160Y10390D01*
X302514Y11295D01*
X303666Y12446D01*
X304571Y13800D01*
X305194Y15305D01*
X305512Y16902D01*
Y18531D01*
X305194Y20128D01*
X304571Y21633D01*
X303666Y22987D01*
X302514Y24138D01*
X301160Y25043D01*
X299656Y25666D01*
X298058Y25984D01*
D02*
G37*
G36*
X18531D02*
X16902D01*
X15305Y25666D01*
X13800Y25043D01*
X12446Y24138D01*
X11295Y22987D01*
X10390Y21633D01*
X9767Y20128D01*
X9449Y18531D01*
Y16902D01*
X9767Y15305D01*
X10390Y13800D01*
X11295Y12446D01*
X12446Y11295D01*
X13800Y10390D01*
X15305Y9767D01*
X16902Y9449D01*
X18531D01*
X20128Y9767D01*
X21633Y10390D01*
X22987Y11295D01*
X24138Y12446D01*
X25043Y13800D01*
X25666Y15305D01*
X25984Y16902D01*
Y18531D01*
X25666Y20128D01*
X25043Y21633D01*
X24138Y22987D01*
X22987Y24138D01*
X21633Y25043D01*
X20128Y25666D01*
X18531Y25984D01*
D02*
G37*
%LPD*%
G36*
X104340Y270803D02*
Y233225D01*
X104461Y232300D01*
X104818Y231438D01*
X104974Y231236D01*
X104753Y230787D01*
X99921D01*
Y220000D01*
X106954D01*
Y213233D01*
X106557Y212928D01*
X106025Y213071D01*
X104605D01*
X103233Y212703D01*
X102003Y211993D01*
X100999Y210989D01*
X100289Y209759D01*
X99921Y208387D01*
Y207338D01*
X88772Y196188D01*
X88204Y195448D01*
X87847Y194586D01*
X87725Y193661D01*
Y182011D01*
X87204Y181489D01*
X86530Y180322D01*
X86181Y179020D01*
Y177673D01*
X86530Y176371D01*
X87204Y175204D01*
X87725Y174682D01*
Y124598D01*
X87847Y123673D01*
X88204Y122811D01*
X88772Y122071D01*
X94560Y116284D01*
X95300Y115716D01*
X96162Y115359D01*
X97087Y115237D01*
X104512D01*
X118523Y101226D01*
X118374Y100669D01*
X117319Y100386D01*
X116107Y99686D01*
X115117Y98697D01*
X114659Y97903D01*
X114082D01*
X113623Y98697D01*
X112634Y99686D01*
X111422Y100386D01*
X110070Y100748D01*
X108670D01*
X107319Y100386D01*
X106107Y99686D01*
X105117Y98697D01*
X104659Y97903D01*
X104081D01*
X103623Y98697D01*
X102634Y99686D01*
X101422Y100386D01*
X100070Y100748D01*
X98671D01*
X97319Y100386D01*
X96107Y99686D01*
X95117Y98697D01*
X94418Y97485D01*
X94055Y96133D01*
Y94734D01*
X94418Y93382D01*
X95117Y92170D01*
X95796Y91491D01*
Y59927D01*
X95918Y59002D01*
X96275Y58140D01*
X96843Y57400D01*
X102197Y52047D01*
X102005Y51585D01*
X93567D01*
X72471Y72680D01*
Y116590D01*
X72788Y116907D01*
X73428Y118015D01*
X73760Y119252D01*
Y120532D01*
X73428Y121769D01*
X72788Y122878D01*
X71883Y123783D01*
X70774Y124423D01*
X69538Y124754D01*
X68257D01*
X67021Y124423D01*
X65912Y123783D01*
X65007Y122878D01*
X64367Y121769D01*
X64035Y120532D01*
Y119252D01*
X64367Y118015D01*
X65007Y116907D01*
X65324Y116590D01*
Y71200D01*
X65446Y70275D01*
X65803Y69413D01*
X66370Y68673D01*
X75307Y59736D01*
X75158Y59179D01*
X74534Y59012D01*
X73678Y58517D01*
X72979Y57818D01*
X72627Y57209D01*
X69567Y54149D01*
X67323D01*
Y60630D01*
X62141D01*
X44873Y77898D01*
Y95304D01*
X45867Y96298D01*
X46619Y97600D01*
X47008Y99052D01*
Y100555D01*
X46619Y102007D01*
X45867Y103308D01*
X44804Y104371D01*
X43503Y105123D01*
X42543Y105380D01*
X42413Y105863D01*
X66307Y129756D01*
X66874Y130497D01*
X67232Y131358D01*
X67353Y132283D01*
Y155118D01*
Y163411D01*
X67353Y163411D01*
X67232Y164336D01*
X67156Y164517D01*
Y172047D01*
Y235433D01*
X67035Y236358D01*
X66678Y237220D01*
X66110Y237960D01*
X49576Y254494D01*
X49809Y254968D01*
X50394Y254891D01*
X50394Y254891D01*
X86582D01*
X87256Y254710D01*
Y258465D01*
X88256D01*
Y254710D01*
X89206Y254965D01*
X90062Y255459D01*
X90762Y256158D01*
X91113Y256768D01*
X102814Y268468D01*
X102814Y268468D01*
X103382Y269208D01*
X103739Y270070D01*
X103840Y270836D01*
X104340Y270803D01*
D02*
G37*
G36*
X123503Y294647D02*
X124339Y293810D01*
Y245918D01*
X123160Y244738D01*
X122592Y243998D01*
X122234Y243136D01*
X122113Y242211D01*
Y192911D01*
X122234Y191986D01*
X122592Y191124D01*
X123160Y190384D01*
X125796Y187747D01*
Y129376D01*
X125117Y128697D01*
X124659Y127903D01*
X124082D01*
X123623Y128697D01*
X122634Y129686D01*
X121422Y130386D01*
X120070Y130748D01*
X119109D01*
X118038Y131819D01*
Y156890D01*
X124764D01*
Y166338D01*
X118038D01*
Y175588D01*
X118538Y175795D01*
X118993Y175341D01*
X119850Y174846D01*
X120799Y174592D01*
Y178346D01*
Y182101D01*
X119850Y181846D01*
X118993Y181352D01*
X118538Y180897D01*
X118038Y181104D01*
Y234543D01*
X117917Y235468D01*
X117560Y236330D01*
X116992Y237070D01*
X116360Y237702D01*
Y253129D01*
X116757Y253434D01*
X117082Y253346D01*
X118430D01*
X119731Y253695D01*
X120899Y254369D01*
X121852Y255322D01*
X122525Y256489D01*
X122874Y257791D01*
Y259138D01*
X122525Y260440D01*
X121852Y261607D01*
X120899Y262560D01*
X119731Y263234D01*
X118430Y263583D01*
X117082D01*
X116757Y263496D01*
X116360Y263800D01*
Y291424D01*
X117456Y292520D01*
X118639D01*
X120041Y292895D01*
X121298Y293621D01*
X122324Y294647D01*
X122663Y295235D01*
X123163D01*
X123503Y294647D01*
D02*
G37*
G36*
X215796Y275094D02*
Y129376D01*
X215117Y128697D01*
X214659Y127903D01*
X214082D01*
X213623Y128697D01*
X212634Y129686D01*
X211422Y130386D01*
X210070Y130748D01*
X209109D01*
X198598Y141260D01*
Y256285D01*
X199059Y256477D01*
X200324Y255212D01*
Y179914D01*
X200143Y179240D01*
X203898D01*
X207652D01*
X207471Y179914D01*
Y202158D01*
X207972Y202542D01*
X208935Y202284D01*
X210356D01*
X211727Y202651D01*
X212957Y203361D01*
X213962Y204365D01*
X214672Y205595D01*
X215039Y206967D01*
Y208387D01*
X214672Y209759D01*
X213962Y210989D01*
X212957Y211993D01*
X211727Y212703D01*
X210356Y213071D01*
X208935D01*
X207972Y212813D01*
X207471Y213196D01*
Y219875D01*
X207972Y220258D01*
X208935Y220000D01*
X210356D01*
X211727Y220368D01*
X212957Y221078D01*
X213962Y222082D01*
X214672Y223312D01*
X215039Y224683D01*
Y226104D01*
X214672Y227476D01*
X213962Y228705D01*
X212957Y229710D01*
X211727Y230420D01*
X210356Y230787D01*
X208935D01*
X207972Y230529D01*
X207471Y230913D01*
Y256693D01*
X207350Y257618D01*
X206993Y258480D01*
X206425Y259220D01*
X203515Y262130D01*
X203163Y262739D01*
X202464Y263439D01*
X201607Y263933D01*
X200657Y264187D01*
Y260433D01*
X199657D01*
Y264187D01*
X199098Y264037D01*
X198598Y264421D01*
Y290921D01*
X198497Y291687D01*
X198961Y291930D01*
X215796Y275094D01*
D02*
G37*
G36*
X185713Y213228D02*
X185316Y212923D01*
X184765Y213071D01*
X183345D01*
X181973Y212703D01*
X180743Y211993D01*
X179739Y210989D01*
X179029Y209759D01*
X178662Y208387D01*
Y206967D01*
X179029Y205595D01*
X179739Y204365D01*
X180743Y203361D01*
X181973Y202651D01*
X183345Y202284D01*
X184765D01*
X185316Y202431D01*
X185713Y202127D01*
Y136830D01*
X179631Y130748D01*
X178671D01*
X177319Y130386D01*
X176107Y129686D01*
X175117Y128697D01*
X174659Y127903D01*
X174082D01*
X173623Y128697D01*
X172634Y129686D01*
X171422Y130386D01*
X170070Y130748D01*
X169109D01*
X168561Y131297D01*
Y162772D01*
X168957Y163076D01*
X169565Y162913D01*
X170986D01*
X172357Y163281D01*
X173587Y163991D01*
X174592Y164995D01*
X175302Y166225D01*
X175669Y167597D01*
Y169017D01*
X175302Y170389D01*
X174592Y171619D01*
X173587Y172623D01*
X172357Y173333D01*
X170986Y173701D01*
X169565D01*
X168957Y173538D01*
X168561Y173842D01*
Y179254D01*
X169936Y180630D01*
X170986D01*
X172357Y180998D01*
X173587Y181708D01*
X174592Y182712D01*
X175302Y183942D01*
X175669Y185313D01*
Y186734D01*
X175302Y188105D01*
X174592Y189335D01*
X173849Y190078D01*
Y210134D01*
X183716Y220000D01*
X185713D01*
Y213228D01*
D02*
G37*
G36*
X105456Y202236D02*
X105853Y201783D01*
X105796Y201354D01*
Y163253D01*
X105296Y163187D01*
X105229Y163438D01*
X104607Y164515D01*
X103728Y165394D01*
X102650Y166016D01*
X101449Y166338D01*
X100205D01*
X99003Y166016D01*
X97926Y165394D01*
X97046Y164515D01*
X96424Y163438D01*
X96102Y162236D01*
Y160992D01*
X96424Y159791D01*
X97046Y158713D01*
X97926Y157834D01*
X99003Y157212D01*
X100205Y156890D01*
X101449D01*
X102650Y157212D01*
X103728Y157834D01*
X104607Y158713D01*
X105229Y159791D01*
X105296Y160041D01*
X105796Y159975D01*
Y129376D01*
X105117Y128697D01*
X104659Y127903D01*
X104081D01*
X103623Y128697D01*
X102634Y129686D01*
X101422Y130386D01*
X100070Y130748D01*
X98671D01*
X97319Y130386D01*
X96107Y129686D01*
X95373Y128953D01*
X94873Y129160D01*
Y174682D01*
X95395Y175204D01*
X96069Y176371D01*
X96417Y177673D01*
Y179020D01*
X96069Y180322D01*
X95395Y181489D01*
X94873Y182011D01*
Y192181D01*
X104939Y202247D01*
X105456Y202236D01*
D02*
G37*
G36*
X198523Y131226D02*
X198373Y130669D01*
X197319Y130386D01*
X196107Y129686D01*
X195117Y128697D01*
X194659Y127903D01*
X194081D01*
X193623Y128697D01*
X192634Y129686D01*
X191422Y130386D01*
X190367Y130669D01*
X190217Y131226D01*
X191814Y132823D01*
X192382Y133563D01*
X192739Y134425D01*
X192860Y135350D01*
X192860Y135350D01*
Y136235D01*
X193322Y136427D01*
X198523Y131226D01*
D02*
G37*
G36*
X164055Y125505D02*
Y124733D01*
X164418Y123382D01*
X165117Y122170D01*
X166107Y121180D01*
X167319Y120481D01*
X168670Y120118D01*
X170070D01*
X171422Y120481D01*
X172634Y121180D01*
X173623Y122170D01*
X174082Y122964D01*
X174659D01*
X175117Y122170D01*
X176107Y121180D01*
X177319Y120481D01*
X178671Y120118D01*
X180070D01*
X181422Y120481D01*
X182634Y121180D01*
X183623Y122170D01*
X184081Y122964D01*
X184659D01*
X185117Y122170D01*
X186107Y121180D01*
X187319Y120481D01*
X188671Y120118D01*
X190070D01*
X191422Y120481D01*
X192634Y121180D01*
X193623Y122170D01*
X194081Y122964D01*
X194659D01*
X195117Y122170D01*
X196107Y121180D01*
X197319Y120481D01*
X198670Y120118D01*
X200070D01*
X201422Y120481D01*
X202634Y121180D01*
X203623Y122170D01*
X204082Y122964D01*
X204659D01*
X205117Y122170D01*
X206107Y121180D01*
X207319Y120481D01*
X208670Y120118D01*
X210070D01*
X211422Y120481D01*
X212634Y121180D01*
X213623Y122170D01*
X214082Y122964D01*
X214659D01*
X215117Y122170D01*
X216107Y121180D01*
X217319Y120481D01*
X218671Y120118D01*
X220070D01*
X221422Y120481D01*
X222634Y121180D01*
X223555Y122102D01*
X224055Y122006D01*
Y120118D01*
X229631D01*
X251741Y98008D01*
Y68779D01*
X249921D01*
Y60485D01*
X232287D01*
X231362Y60363D01*
X230500Y60006D01*
X229760Y59438D01*
X221906Y51585D01*
X211710D01*
X211518Y52047D01*
X214432Y54961D01*
X215170D01*
X216472Y55309D01*
X217639Y55983D01*
X218591Y56936D01*
X219265Y58103D01*
X219614Y59405D01*
Y60753D01*
X219265Y62054D01*
X218591Y63221D01*
X217639Y64174D01*
X216472Y64848D01*
X215170Y65197D01*
X213822D01*
X212521Y64848D01*
X211353Y64174D01*
X210401Y63221D01*
X209727Y62054D01*
X209378Y60753D01*
Y60015D01*
X205548Y56185D01*
X201494D01*
X201302Y56647D01*
X201591Y56936D01*
X202265Y58103D01*
X202614Y59405D01*
Y60753D01*
X202265Y62054D01*
X201591Y63221D01*
X200639Y64174D01*
X199471Y64848D01*
X198170Y65197D01*
X197432D01*
X192944Y69685D01*
Y91491D01*
X193623Y92170D01*
X194081Y92964D01*
X194659D01*
X195117Y92170D01*
X196107Y91180D01*
X197319Y90481D01*
X198670Y90118D01*
X200070D01*
X201422Y90481D01*
X202634Y91180D01*
X203623Y92170D01*
X204082Y92964D01*
X204659D01*
X205117Y92170D01*
X206107Y91180D01*
X207319Y90481D01*
X208670Y90118D01*
X210070D01*
X211422Y90481D01*
X212634Y91180D01*
X213623Y92170D01*
X214082Y92964D01*
X214659D01*
X215117Y92170D01*
X216107Y91180D01*
X217319Y90481D01*
X218671Y90118D01*
X220070D01*
X221422Y90481D01*
X222634Y91180D01*
X223623Y92170D01*
X224081Y92964D01*
X224659D01*
X225117Y92170D01*
X226107Y91180D01*
X227319Y90481D01*
X228671Y90118D01*
X230070D01*
X231422Y90481D01*
X232634Y91180D01*
X233623Y92170D01*
X234323Y93382D01*
X234685Y94734D01*
Y96133D01*
X234323Y97485D01*
X233623Y98697D01*
X232634Y99686D01*
X231422Y100386D01*
X230070Y100748D01*
X228671D01*
X227319Y100386D01*
X226107Y99686D01*
X225117Y98697D01*
X224659Y97903D01*
X224081D01*
X223623Y98697D01*
X222634Y99686D01*
X221422Y100386D01*
X220070Y100748D01*
X218671D01*
X217319Y100386D01*
X216107Y99686D01*
X215117Y98697D01*
X214659Y97903D01*
X214082D01*
X213623Y98697D01*
X212634Y99686D01*
X211422Y100386D01*
X210070Y100748D01*
X208670D01*
X207319Y100386D01*
X206107Y99686D01*
X205117Y98697D01*
X204659Y97903D01*
X204082D01*
X203623Y98697D01*
X202634Y99686D01*
X201422Y100386D01*
X200070Y100748D01*
X198670D01*
X197319Y100386D01*
X196107Y99686D01*
X195117Y98697D01*
X194659Y97903D01*
X194081D01*
X193623Y98697D01*
X192634Y99686D01*
X191422Y100386D01*
X190070Y100748D01*
X188671D01*
X187319Y100386D01*
X186107Y99686D01*
X185117Y98697D01*
X184659Y97903D01*
X184081D01*
X183623Y98697D01*
X182634Y99686D01*
X181422Y100386D01*
X180070Y100748D01*
X178671D01*
X177319Y100386D01*
X176107Y99686D01*
X175117Y98697D01*
X174417Y97485D01*
X174055Y96133D01*
Y94734D01*
X174417Y93382D01*
X175117Y92170D01*
X175796Y91491D01*
Y70327D01*
X175918Y69402D01*
X176275Y68541D01*
X176843Y67800D01*
X179172Y65471D01*
X179043Y64988D01*
X178521Y64848D01*
X177353Y64174D01*
X176400Y63221D01*
X175727Y62054D01*
X175378Y60753D01*
Y59405D01*
X175727Y58103D01*
X176400Y56936D01*
X177353Y55983D01*
X178521Y55309D01*
X179822Y54961D01*
X181170D01*
X182472Y55309D01*
X183639Y55983D01*
X184591Y56936D01*
X185265Y58103D01*
X185405Y58626D01*
X185888Y58755D01*
X192597Y52047D01*
X192405Y51585D01*
X166667D01*
X163771Y54481D01*
X163928Y55031D01*
X164968Y55309D01*
X166135Y55983D01*
X167088Y56936D01*
X167762Y58103D01*
X168110Y59405D01*
Y60753D01*
X167762Y62054D01*
X167088Y63221D01*
X166135Y64174D01*
X164968Y64848D01*
X163666Y65197D01*
X162318D01*
X161017Y64848D01*
X159850Y64174D01*
X158897Y63221D01*
X158223Y62054D01*
X157944Y61015D01*
X157394Y60857D01*
X145314Y72938D01*
X144574Y73506D01*
X143712Y73863D01*
X142787Y73985D01*
X132250D01*
X122944Y83291D01*
Y91491D01*
X123623Y92170D01*
X124082Y92964D01*
X124659D01*
X125117Y92170D01*
X126107Y91180D01*
X127319Y90481D01*
X128671Y90118D01*
X130070D01*
X131422Y90481D01*
X132634Y91180D01*
X133623Y92170D01*
X134081Y92964D01*
X134659D01*
X135117Y92170D01*
X136107Y91180D01*
X137319Y90481D01*
X138671Y90118D01*
X140070D01*
X141422Y90481D01*
X142634Y91180D01*
X143623Y92170D01*
X144081Y92964D01*
X144659D01*
X145117Y92170D01*
X146107Y91180D01*
X147319Y90481D01*
X148670Y90118D01*
X150070D01*
X151422Y90481D01*
X152634Y91180D01*
X153623Y92170D01*
X154081Y92964D01*
X154659D01*
X155117Y92170D01*
X156107Y91180D01*
X157319Y90481D01*
X158670Y90118D01*
X160070D01*
X161422Y90481D01*
X162634Y91180D01*
X163623Y92170D01*
X164323Y93382D01*
X164606Y94437D01*
X165163Y94586D01*
X165630Y94119D01*
X165687Y93907D01*
X166207Y93006D01*
X166943Y92270D01*
X167844Y91750D01*
X168850Y91480D01*
X168870D01*
Y95433D01*
X169370D01*
Y95933D01*
X173323D01*
Y95954D01*
X173054Y96959D01*
X172533Y97860D01*
X171797Y98596D01*
X170896Y99117D01*
X170684Y99173D01*
X162944Y106914D01*
Y123718D01*
X163054Y123907D01*
X163323Y124913D01*
Y125435D01*
X163823Y125682D01*
X164055Y125505D01*
D02*
G37*
G36*
X185117Y92170D02*
X185796Y91491D01*
Y69609D01*
X185334Y69417D01*
X182944Y71808D01*
Y91491D01*
X183623Y92170D01*
X184081Y92964D01*
X184659D01*
X185117Y92170D01*
D02*
G37*
G36*
X105117D02*
X105796Y91491D01*
Y80181D01*
X104953Y79338D01*
X104385Y78598D01*
X104028Y77736D01*
X103907Y76811D01*
Y63743D01*
X103444Y63281D01*
X102944Y63364D01*
Y91491D01*
X103623Y92170D01*
X104081Y92964D01*
X104659D01*
X105117Y92170D01*
D02*
G37*
G36*
X35980Y97600D02*
X36731Y96298D01*
X37725Y95304D01*
Y76417D01*
X37847Y75492D01*
X38204Y74630D01*
X38772Y73890D01*
X57087Y55576D01*
Y54149D01*
X42638D01*
X38003Y58784D01*
X37651Y59393D01*
X36952Y60092D01*
X36343Y60444D01*
X34873Y61913D01*
Y97300D01*
X35330Y98092D01*
X35510Y98125D01*
X35839D01*
X35980Y97600D01*
D02*
G37*
G36*
X115117Y92170D02*
X115796Y91491D01*
Y81811D01*
X115918Y80886D01*
X116275Y80024D01*
X116843Y79284D01*
X128243Y67884D01*
X128243Y67884D01*
X128983Y67316D01*
X129845Y66959D01*
X130770Y66837D01*
X141306D01*
X142693Y65450D01*
X142564Y64967D01*
X142119Y64848D01*
X140952Y64174D01*
X139999Y63221D01*
X139325Y62054D01*
X138976Y60753D01*
Y60015D01*
X130546Y51585D01*
X122214D01*
X122022Y52047D01*
X124936Y54961D01*
X125674D01*
X126976Y55309D01*
X128143Y55983D01*
X129095Y56936D01*
X129769Y58103D01*
X130118Y59405D01*
Y60753D01*
X129769Y62054D01*
X129095Y63221D01*
X128143Y64174D01*
X126976Y64848D01*
X125674Y65197D01*
X124326D01*
X123024Y64848D01*
X121857Y64174D01*
X120905Y63221D01*
X120231Y62054D01*
X119882Y60753D01*
Y60015D01*
X116052Y56185D01*
X111478D01*
X111286Y56647D01*
X111576Y56936D01*
X112250Y58103D01*
X112599Y59405D01*
Y60753D01*
X112250Y62054D01*
X111576Y63221D01*
X111054Y63743D01*
Y75331D01*
X111897Y76174D01*
X112465Y76914D01*
X112822Y77776D01*
X112944Y78701D01*
Y91491D01*
X113623Y92170D01*
X114082Y92964D01*
X114659D01*
X115117Y92170D01*
D02*
G37*
G36*
X27725Y97262D02*
Y60433D01*
X27847Y59508D01*
X28204Y58646D01*
X28772Y57906D01*
X31072Y55606D01*
Y32171D01*
X30610Y31980D01*
X25036Y37554D01*
Y51968D01*
X25984D01*
Y62205D01*
X25469D01*
Y94095D01*
X27008D01*
Y97290D01*
X27508Y97490D01*
X27725Y97262D01*
D02*
G37*
%LPC*%
G36*
X121799Y182101D02*
Y178846D01*
X125054D01*
X124799Y179796D01*
X124305Y180653D01*
X123605Y181352D01*
X122749Y181846D01*
X121799Y182101D01*
D02*
G37*
G36*
X125054Y177846D02*
X121799D01*
Y174592D01*
X122749Y174846D01*
X123605Y175341D01*
X124305Y176040D01*
X124799Y176897D01*
X125054Y177846D01*
D02*
G37*
G36*
X207652Y178240D02*
X204398D01*
Y174986D01*
X205347Y175240D01*
X206204Y175735D01*
X206903Y176434D01*
X207398Y177290D01*
X207652Y178240D01*
D02*
G37*
G36*
X203398D02*
X200143D01*
X200398Y177290D01*
X200892Y176434D01*
X201591Y175735D01*
X202448Y175240D01*
X203398Y174986D01*
Y178240D01*
D02*
G37*
G36*
X173323Y94933D02*
X169870D01*
Y91480D01*
X169891D01*
X170896Y91750D01*
X171797Y92270D01*
X172533Y93006D01*
X173054Y93907D01*
X173323Y94913D01*
Y94933D01*
D02*
G37*
%LPD*%
G36*
X280678Y257640D02*
Y214252D01*
X280800Y213327D01*
X281157Y212465D01*
X281176Y212440D01*
X280708Y211971D01*
X280125Y210962D01*
X279823Y209835D01*
Y208669D01*
Y199823D01*
X288681D01*
Y205123D01*
X289143Y205314D01*
X302213Y192245D01*
Y174400D01*
X301751Y174209D01*
X300197Y175763D01*
Y176501D01*
X299848Y177802D01*
X299174Y178969D01*
X298221Y179922D01*
X297054Y180596D01*
X295753Y180945D01*
X294405D01*
X293103Y180596D01*
X291936Y179922D01*
X290983Y178969D01*
X290310Y177802D01*
X289961Y176501D01*
Y175153D01*
X290310Y173851D01*
X290983Y172684D01*
X291936Y171731D01*
X293103Y171057D01*
X294405Y170709D01*
X295143D01*
X296513Y169339D01*
Y151152D01*
X296116Y150847D01*
X295753Y150945D01*
X295015D01*
X275161Y170799D01*
Y262504D01*
X275622Y262696D01*
X280678Y257640D01*
D02*
G37*
G36*
X302213Y128530D02*
Y108259D01*
X301713Y107919D01*
X300940Y108126D01*
X300894D01*
Y103976D01*
X299894D01*
Y108126D01*
X299847D01*
X299061Y107915D01*
X298561Y108248D01*
Y125531D01*
X301751Y128721D01*
X302213Y128530D01*
D02*
G37*
G36*
X133749Y23362D02*
Y19575D01*
X132912Y18739D01*
X132573Y18151D01*
X132073D01*
X131733Y18739D01*
X130707Y19765D01*
X129450Y20491D01*
X128049Y20866D01*
X126865D01*
X122908Y24823D01*
X123167Y25271D01*
X124326Y24961D01*
X125674D01*
X126976Y25310D01*
X128143Y25983D01*
X128664Y26505D01*
X130606D01*
X133749Y23362D01*
D02*
G37*
D12*
X41061Y23835D02*
X42019Y22876D01*
X42339Y22557D01*
X53583Y271024D02*
X70669D01*
X46850Y277756D02*
X53583Y271024D01*
X50394Y258465D02*
X87756D01*
X31102Y277756D02*
X50394Y258465D01*
X251394Y294504D02*
X263896D01*
X275524Y282876D01*
Y267849D02*
Y282876D01*
Y267849D02*
X284252Y259120D01*
X246457Y289567D02*
X251394Y294504D01*
X284252Y214252D02*
Y259120D01*
X284731Y214252D02*
X285483Y213500D01*
X286012D02*
X305787Y193725D01*
Y103976D02*
Y193725D01*
X284252Y214252D02*
X284731D01*
X285483Y213500D02*
X286012D01*
X63583Y172047D02*
Y235433D01*
X31102Y267913D02*
Y277756D01*
Y267913D02*
X63583Y235433D01*
X230157Y260433D02*
X247638Y242953D01*
Y158661D02*
Y242953D01*
X68898Y71200D02*
Y119892D01*
Y71200D02*
X92087Y48011D01*
X159370Y105433D02*
X169370Y95433D01*
X159370Y105433D02*
Y125433D01*
X147913Y298031D02*
X157913D01*
X137913D02*
X147913D01*
X41157Y50575D02*
X71047D01*
X34646Y57087D02*
X41157Y50575D01*
X71047D02*
X75984Y55512D01*
X42339Y22228D02*
X45472Y19094D01*
X42339Y22228D02*
Y22557D01*
X34646Y29921D02*
Y57087D01*
X40732Y23835D02*
X41061D01*
X34646Y29921D02*
X40732Y23835D01*
X187323Y15354D02*
X199772D01*
X214496Y30079D01*
X177323Y15354D02*
X191445Y29476D01*
X196893D01*
X197496Y30079D01*
X107480D02*
X108083Y29476D01*
X113201D02*
X127323Y15354D01*
X108083Y29476D02*
X113201D01*
X305787Y69311D02*
Y103976D01*
X179387Y27418D02*
Y30079D01*
X164987Y180735D02*
X170276Y186024D01*
X164987Y129817D02*
Y180735D01*
Y129817D02*
X169370Y125433D01*
X130906Y225394D02*
X139387Y233875D01*
Y259465D01*
X144685Y264764D01*
X130906Y225394D02*
X144685Y211614D01*
Y186024D02*
Y211614D01*
X119370Y81811D02*
Y95433D01*
Y81811D02*
X130770Y70411D01*
X142787D01*
X165187Y48011D01*
X223387D01*
X232287Y56911D01*
X261487D01*
Y143691D01*
X264173Y146378D01*
X92087Y48011D02*
X132027D01*
X144094Y60079D01*
X117532Y52611D02*
X125000Y60079D01*
X106687Y52611D02*
X117532D01*
X99370Y59927D02*
X106687Y52611D01*
X99370Y59927D02*
Y95433D01*
X179370Y125433D02*
X189287Y135350D01*
Y286658D01*
X177913Y298031D02*
X189287Y286658D01*
X187913Y298031D02*
X195024Y290921D01*
Y139780D02*
Y290921D01*
Y139780D02*
X209370Y125433D01*
X255315Y28346D02*
Y45669D01*
Y28346D02*
X262992Y20669D01*
X300394Y103976D02*
X305787D01*
X303287Y66811D02*
X305787Y69311D01*
X280905Y45669D02*
X303287Y66811D01*
X31299Y60433D02*
Y99803D01*
Y60433D02*
X34646Y57087D01*
X284449Y275000D02*
X287087D01*
X294370Y267717D01*
Y239370D02*
Y267717D01*
X162992Y21024D02*
Y30079D01*
X157323Y15354D02*
X162992Y21024D01*
X144094Y18583D02*
Y30079D01*
Y18583D02*
X147323Y15354D01*
X189370Y68205D02*
Y95433D01*
Y68205D02*
X197496Y60079D01*
X129634Y306311D02*
X137913Y298031D01*
X107087Y306311D02*
X129634D01*
X100287Y299511D02*
X107087Y306311D01*
X100287Y270995D02*
Y299511D01*
X87756Y258465D02*
X100287Y270995D01*
X105992Y118811D02*
X129370Y95433D01*
X97087Y118811D02*
X105992D01*
X91299Y124598D02*
X97087Y118811D01*
X91299Y124598D02*
Y178346D01*
X207028Y52611D02*
X214496Y60079D01*
X197087Y52611D02*
X207028D01*
X179370Y70327D02*
X197087Y52611D01*
X179370Y70327D02*
Y95433D01*
X179387Y30079D02*
X180496D01*
X167323Y15354D02*
X179387Y27418D01*
X137323Y15354D02*
Y24843D01*
X132087Y30079D02*
X137323Y24843D01*
X125000Y30079D02*
X132087D01*
X63779Y132283D02*
Y155118D01*
X31299Y99803D02*
X63779Y132283D01*
X41299Y76417D02*
Y99803D01*
Y76417D02*
X62205Y55512D01*
X255315Y63386D02*
Y99488D01*
X229370Y125433D02*
X255315Y99488D01*
X271587Y169319D02*
X295079Y145827D01*
X271587Y169319D02*
Y278217D01*
X260236Y289567D02*
X271587Y278217D01*
X200157Y260433D02*
X203898Y256693D01*
Y178740D02*
Y256693D01*
X197913Y298031D02*
X219370Y276575D01*
Y125433D02*
Y276575D01*
X294987Y79383D02*
X300394Y73976D01*
X294987Y79383D02*
Y127011D01*
X300087Y132111D01*
Y170819D01*
X295079Y175827D02*
X300087Y170819D01*
X91299Y178346D02*
Y193661D01*
X105315Y207677D01*
X112787Y292905D02*
X117913Y298031D01*
X112787Y236221D02*
Y292905D01*
Y236221D02*
X114465Y234543D01*
Y130339D02*
Y234543D01*
Y130339D02*
X119370Y125433D01*
X107913Y233225D02*
Y298031D01*
Y233225D02*
X110528Y230611D01*
Y202511D02*
Y230611D01*
X109370Y201354D02*
X110528Y202511D01*
X109370Y125433D02*
Y201354D01*
X127913Y244438D02*
Y298031D01*
X125687Y242211D02*
X127913Y244438D01*
X125687Y192911D02*
Y242211D01*
Y192911D02*
X129370Y189227D01*
Y125433D02*
Y189227D01*
X170276Y211614D02*
X184055Y225394D01*
X170276Y186024D02*
Y211614D01*
X109370Y78701D02*
Y95433D01*
X107480Y76811D02*
X109370Y78701D01*
X107480Y60079D02*
Y76811D01*
X63583Y163608D02*
Y172047D01*
Y163608D02*
X63779Y163411D01*
Y155118D02*
Y163411D01*
D17*
X43898Y172047D02*
D03*
X120039Y161614D02*
D03*
X44094Y155118D02*
D03*
D18*
X63583Y172047D02*
D03*
X100827Y161614D02*
D03*
X63779Y155118D02*
D03*
D25*
X45472Y19094D02*
D03*
X284449Y275000D02*
D03*
X46850Y277756D02*
D03*
X38976D02*
D03*
D26*
X37598Y19094D02*
D03*
X31102Y277756D02*
D03*
D28*
X284449Y267126D02*
D03*
D34*
X280905Y45669D02*
D03*
X255315D02*
D03*
X280905Y63386D02*
D03*
X209646Y207677D02*
D03*
X184055D02*
D03*
X209646Y225394D02*
D03*
X130906Y207677D02*
D03*
X105315D02*
D03*
X130906Y225394D02*
D03*
X170276Y168307D02*
D03*
X144685D02*
D03*
X170276Y186024D02*
D03*
Y247047D02*
D03*
X144685D02*
D03*
X170276Y264764D02*
D03*
D35*
X255315Y63386D02*
D03*
X184055Y225394D02*
D03*
X105315D02*
D03*
X144685Y186024D02*
D03*
Y264764D02*
D03*
D42*
X20866Y57087D02*
X21299Y57520D01*
Y99803D01*
X20866Y35827D02*
Y57087D01*
Y35827D02*
X37598Y19094D01*
D43*
X229370Y125433D02*
D03*
D44*
X219370D02*
D03*
X209370D02*
D03*
X199370D02*
D03*
X189370D02*
D03*
X179370D02*
D03*
X169370D02*
D03*
X159370D02*
D03*
X149370D02*
D03*
X139370D02*
D03*
X129370D02*
D03*
X119370D02*
D03*
X109370D02*
D03*
X99370D02*
D03*
X229370Y95433D02*
D03*
X219370D02*
D03*
X209370D02*
D03*
X199370D02*
D03*
X189370D02*
D03*
X179370D02*
D03*
X169370D02*
D03*
X159370D02*
D03*
X149370D02*
D03*
X139370D02*
D03*
X129370D02*
D03*
X119370D02*
D03*
X109370D02*
D03*
X99370D02*
D03*
D45*
X121299Y178346D02*
D03*
X91299D02*
D03*
X87756Y258465D02*
D03*
X117756D02*
D03*
X230157Y260433D02*
D03*
X200157D02*
D03*
X233898Y178740D02*
D03*
X203898D02*
D03*
X75984Y55512D02*
D03*
X34646Y57087D02*
D03*
X262992Y20669D02*
D03*
X264173Y176378D02*
D03*
Y146378D02*
D03*
X295079Y175827D02*
D03*
Y145827D02*
D03*
X246457Y289567D02*
D03*
X214496Y60079D02*
D03*
Y30079D02*
D03*
X197496Y60079D02*
D03*
Y30079D02*
D03*
X180496Y60079D02*
D03*
Y30079D02*
D03*
X162992Y60079D02*
D03*
Y30079D02*
D03*
X144094Y60079D02*
D03*
Y30079D02*
D03*
X125000Y60079D02*
D03*
Y30079D02*
D03*
X107480Y60079D02*
D03*
Y30079D02*
D03*
X70669Y301024D02*
D03*
Y271024D02*
D03*
D46*
X41299Y99803D02*
D03*
X31299D02*
D03*
D47*
X21299D02*
D03*
D48*
X62205Y55512D02*
D03*
X20866Y57087D02*
D03*
X249213Y20669D02*
D03*
X260236Y289567D02*
D03*
D49*
X256811Y239370D02*
D03*
X294370D02*
D03*
D50*
X284252Y204252D02*
D03*
D51*
Y209252D02*
D03*
Y214252D02*
D03*
D52*
X147323Y15354D02*
D03*
X167323D02*
D03*
X177323D02*
D03*
X157323D02*
D03*
X137323D02*
D03*
X127323D02*
D03*
X107913Y298031D02*
D03*
X117913D02*
D03*
X127913D02*
D03*
X147913D02*
D03*
X157913D02*
D03*
X177913D02*
D03*
X197913D02*
D03*
X207913D02*
D03*
X187913D02*
D03*
X167913D02*
D03*
X137913D02*
D03*
X300394Y103976D02*
D03*
Y93976D02*
D03*
Y83976D02*
D03*
D53*
X187323Y15354D02*
D03*
X217913Y298031D02*
D03*
D54*
X300394Y73976D02*
D03*
D55*
X247638Y158661D02*
D03*
X68898Y119892D02*
D03*
M02*
