G04*
G04 #@! TF.GenerationSoftware,Altium Limited,Altium Designer,21.4.1 (30)*
G04*
G04 Layer_Physical_Order=2*
G04 Layer_Color=16711680*
%FSLAX25Y25*%
%MOIN*%
G70*
G04*
G04 #@! TF.SameCoordinates,C371DEEE-1534-44D1-B208-D1612C8B0698*
G04*
G04*
G04 #@! TF.FilePolarity,Positive*
G04*
G01*
G75*
%ADD12C,0.02362*%
%ADD17R,0.04724X0.04724*%
%ADD18C,0.04724*%
%ADD25C,0.05118*%
%ADD26R,0.05118X0.05118*%
%ADD28R,0.05118X0.05118*%
%ADD34C,0.06063*%
%ADD35R,0.06063X0.06063*%
%ADD43R,0.05906X0.05906*%
%ADD44C,0.05906*%
%ADD45C,0.05512*%
%ADD46C,0.06693*%
%ADD47R,0.06693X0.06693*%
%ADD48R,0.05512X0.05512*%
%ADD49C,0.06102*%
%ADD50R,0.04134X0.04134*%
%ADD51C,0.04134*%
%ADD52C,0.06299*%
%ADD53R,0.06299X0.06299*%
%ADD54R,0.06299X0.06299*%
%ADD55C,0.05000*%
G36*
X315158Y314567D02*
Y-394D01*
X197D01*
X197Y314567D01*
X315158D01*
X315158Y314567D01*
D02*
G37*
%LPC*%
G36*
X208534Y310985D02*
X77057D01*
X76132Y310863D01*
X75270Y310506D01*
X74529Y309938D01*
X70733Y306142D01*
X69995D01*
X68694Y305793D01*
X67527Y305119D01*
X66574Y304166D01*
X65900Y302999D01*
X65551Y301697D01*
Y300350D01*
X65900Y299048D01*
X66574Y297881D01*
X67527Y296928D01*
X68694Y296254D01*
X69995Y295905D01*
X71343D01*
X72645Y296254D01*
X73812Y296928D01*
X74765Y297881D01*
X75438Y299048D01*
X75787Y300350D01*
Y301087D01*
X78537Y303837D01*
X106353D01*
X106419Y303337D01*
X105786Y303168D01*
X104529Y302442D01*
X103503Y301416D01*
X102777Y300159D01*
X102402Y298757D01*
Y297306D01*
X102777Y295904D01*
X103503Y294647D01*
X104529Y293621D01*
X105786Y292895D01*
X107188Y292520D01*
X108639D01*
X110041Y292895D01*
X111298Y293621D01*
X112324Y294647D01*
X112663Y295235D01*
X113163D01*
X113503Y294647D01*
X114529Y293621D01*
X115786Y292895D01*
X117188Y292520D01*
X118639D01*
X120041Y292895D01*
X121298Y293621D01*
X122324Y294647D01*
X122663Y295235D01*
X123163D01*
X123503Y294647D01*
X124529Y293621D01*
X125786Y292895D01*
X127188Y292520D01*
X128639D01*
X130041Y292895D01*
X131298Y293621D01*
X132324Y294647D01*
X133050Y295904D01*
X133360Y297061D01*
X133877D01*
X134047Y296430D01*
X134593Y295483D01*
X135365Y294711D01*
X136312Y294165D01*
X137367Y293882D01*
X137413D01*
Y298031D01*
Y302181D01*
X137367D01*
X136312Y301898D01*
X135365Y301352D01*
X134593Y300579D01*
X134047Y299633D01*
X133877Y299002D01*
X133360D01*
X133050Y300159D01*
X132324Y301416D01*
X131298Y302442D01*
X130041Y303168D01*
X129408Y303337D01*
X129474Y303837D01*
X166353D01*
X166419Y303337D01*
X165786Y303168D01*
X164529Y302442D01*
X163503Y301416D01*
X162777Y300159D01*
X162467Y299002D01*
X161950D01*
X161780Y299633D01*
X161234Y300579D01*
X160461Y301352D01*
X159515Y301898D01*
X158460Y302181D01*
X158413D01*
Y298031D01*
X157913D01*
Y297531D01*
X153764D01*
Y297485D01*
X154047Y296430D01*
X154593Y295483D01*
X155366Y294711D01*
X156312Y294165D01*
X157367Y293882D01*
X158002D01*
X158210Y293382D01*
X152013Y287185D01*
X44832D01*
X43907Y287063D01*
X43045Y286706D01*
X42305Y286138D01*
X38843Y282677D01*
X38328D01*
X37077Y282342D01*
X35955Y281694D01*
X35162Y280901D01*
X34661Y281075D01*
Y281315D01*
X31602D01*
Y277756D01*
Y274197D01*
X34661D01*
Y274437D01*
X35162Y274611D01*
X35955Y273818D01*
X37077Y273170D01*
X38328Y272835D01*
X39624D01*
X40876Y273170D01*
X41998Y273818D01*
X42913Y274733D01*
X43829Y273818D01*
X44951Y273170D01*
X46202Y272835D01*
X47498D01*
X48750Y273170D01*
X49872Y273818D01*
X50788Y274734D01*
X51436Y275856D01*
X51772Y277108D01*
Y278404D01*
X51468Y279537D01*
X51726Y280037D01*
X153493D01*
X154418Y280159D01*
X155280Y280516D01*
X156020Y281084D01*
X167456Y292520D01*
X168639D01*
X170041Y292895D01*
X171298Y293621D01*
X172324Y294647D01*
X172663Y295235D01*
X173163D01*
X173503Y294647D01*
X174529Y293621D01*
X175786Y292895D01*
X177188Y292520D01*
X178639D01*
X180041Y292895D01*
X181298Y293621D01*
X182324Y294647D01*
X182663Y295235D01*
X183163D01*
X183503Y294647D01*
X184529Y293621D01*
X185786Y292895D01*
X187188Y292520D01*
X188639D01*
X190041Y292895D01*
X191298Y293621D01*
X192324Y294647D01*
X192663Y295235D01*
X193163D01*
X193503Y294647D01*
X194529Y293621D01*
X195786Y292895D01*
X196756Y292635D01*
X196905Y292078D01*
X173748Y268920D01*
X173587Y269080D01*
X172357Y269790D01*
X170986Y270158D01*
X169565D01*
X168194Y269790D01*
X166964Y269080D01*
X166222Y268338D01*
X150079D01*
Y270158D01*
X139291D01*
Y268338D01*
X87701D01*
X82488Y273551D01*
X81748Y274119D01*
X80886Y274476D01*
X79961Y274598D01*
X74333D01*
X73812Y275119D01*
X72645Y275793D01*
X71343Y276142D01*
X69995D01*
X68694Y275793D01*
X67527Y275119D01*
X66574Y274166D01*
X65900Y272999D01*
X65551Y271697D01*
Y270350D01*
X65900Y269048D01*
X66574Y267881D01*
X67527Y266928D01*
X68694Y266254D01*
X69995Y265905D01*
X71343D01*
X72645Y266254D01*
X73812Y266928D01*
X74333Y267450D01*
X78480D01*
X83693Y262237D01*
X83693Y262237D01*
X84434Y261669D01*
X84877Y261485D01*
X84974Y260995D01*
X84750Y260771D01*
X84256Y259914D01*
X84002Y258965D01*
X91510D01*
X91256Y259914D01*
X90808Y260690D01*
X90974Y261190D01*
X112920D01*
X113170Y260757D01*
X112987Y260440D01*
X112638Y259138D01*
Y257791D01*
X112987Y256489D01*
X113661Y255322D01*
X114613Y254369D01*
X115780Y253695D01*
X117082Y253346D01*
X117820D01*
X166016Y205150D01*
X166756Y204582D01*
X167618Y204225D01*
X168543Y204103D01*
X174774D01*
X174965Y203641D01*
X167009Y195685D01*
X49587D01*
X48662Y195563D01*
X47800Y195206D01*
X47060Y194638D01*
X36759Y184338D01*
X36192Y183598D01*
X35835Y182736D01*
X35713Y181811D01*
Y133411D01*
X35835Y132486D01*
X36192Y131624D01*
X36759Y130884D01*
X54959Y112684D01*
X55700Y112116D01*
X56562Y111759D01*
X57487Y111637D01*
X57487Y111637D01*
X118112D01*
X128523Y101226D01*
X128374Y100669D01*
X127319Y100386D01*
X126107Y99686D01*
X125117Y98697D01*
X124659Y97903D01*
X124082D01*
X123623Y98697D01*
X122634Y99686D01*
X121422Y100386D01*
X120070Y100748D01*
X118670D01*
X117319Y100386D01*
X116107Y99686D01*
X115117Y98697D01*
X114659Y97903D01*
X114082D01*
X113623Y98697D01*
X112634Y99686D01*
X111422Y100386D01*
X110070Y100748D01*
X108670D01*
X107319Y100386D01*
X106107Y99686D01*
X105117Y98697D01*
X104659Y97903D01*
X104081D01*
X103623Y98697D01*
X102634Y99686D01*
X101422Y100386D01*
X100070Y100748D01*
X98671D01*
X97319Y100386D01*
X96107Y99686D01*
X95117Y98697D01*
X94418Y97485D01*
X94055Y96133D01*
Y94734D01*
X94418Y93382D01*
X95117Y92170D01*
X96107Y91180D01*
X97319Y90481D01*
X98671Y90118D01*
X100070D01*
X101422Y90481D01*
X102634Y91180D01*
X103623Y92170D01*
X104081Y92964D01*
X104659D01*
X105117Y92170D01*
X106107Y91180D01*
X107319Y90481D01*
X108670Y90118D01*
X110070D01*
X111422Y90481D01*
X112634Y91180D01*
X113623Y92170D01*
X114082Y92964D01*
X114659D01*
X115117Y92170D01*
X116107Y91180D01*
X117319Y90481D01*
X118670Y90118D01*
X120070D01*
X121422Y90481D01*
X122634Y91180D01*
X123623Y92170D01*
X124082Y92964D01*
X124659D01*
X125117Y92170D01*
X126107Y91180D01*
X127319Y90481D01*
X128671Y90118D01*
X130070D01*
X131422Y90481D01*
X132634Y91180D01*
X133623Y92170D01*
X134081Y92964D01*
X134659D01*
X135117Y92170D01*
X136107Y91180D01*
X137319Y90481D01*
X138373Y90198D01*
X138523Y89640D01*
X132968Y84085D01*
X62072D01*
X47008Y99149D01*
Y100555D01*
X46619Y102007D01*
X45867Y103308D01*
X44804Y104371D01*
X43503Y105123D01*
X42051Y105512D01*
X40548D01*
X39096Y105123D01*
X37794Y104371D01*
X36731Y103308D01*
X35980Y102007D01*
X35839Y101481D01*
X35510D01*
X35330Y101514D01*
X34777Y102472D01*
X33968Y103281D01*
X32977Y103853D01*
X31871Y104150D01*
X31799D01*
Y99803D01*
Y95457D01*
X31871D01*
X32977Y95753D01*
X33968Y96325D01*
X34777Y97134D01*
X35330Y98092D01*
X35510Y98125D01*
X35839D01*
X35980Y97600D01*
X36731Y96298D01*
X37794Y95235D01*
X39096Y94484D01*
X40548Y94095D01*
X41954D01*
X58064Y77984D01*
X58805Y77416D01*
X59666Y77059D01*
X60591Y76937D01*
X134448D01*
X135373Y77059D01*
X136235Y77416D01*
X136975Y77984D01*
X145449Y86458D01*
X145914Y86215D01*
X145813Y85450D01*
Y65328D01*
X145416Y65023D01*
X144768Y65197D01*
X143421D01*
X142119Y64848D01*
X140952Y64174D01*
X139999Y63221D01*
X139325Y62054D01*
X138976Y60753D01*
Y59405D01*
X139325Y58103D01*
X139999Y56936D01*
X140952Y55983D01*
X142119Y55309D01*
X143421Y54961D01*
X144768D01*
X146070Y55309D01*
X146604Y55618D01*
X146860Y55284D01*
X159560Y42584D01*
X160300Y42016D01*
X161162Y41659D01*
X162087Y41537D01*
X223290D01*
X244094Y20733D01*
Y15551D01*
X254331D01*
Y25787D01*
X249149D01*
X227298Y47638D01*
X226558Y48206D01*
X225696Y48563D01*
X224771Y48685D01*
X174810D01*
X174618Y49147D01*
X180432Y54961D01*
X181170D01*
X182472Y55309D01*
X183639Y55983D01*
X184591Y56936D01*
X185265Y58103D01*
X185614Y59405D01*
Y60753D01*
X185265Y62054D01*
X184591Y63221D01*
X183639Y64174D01*
X182472Y64848D01*
X181170Y65197D01*
X179822D01*
X178521Y64848D01*
X177353Y64174D01*
X176400Y63221D01*
X175727Y62054D01*
X175378Y60753D01*
Y60015D01*
X169548Y54185D01*
X165667D01*
X165004Y54848D01*
X165146Y55413D01*
X166135Y55983D01*
X167088Y56936D01*
X167762Y58103D01*
X168110Y59405D01*
Y60143D01*
X182005Y74037D01*
X191548D01*
X192473Y74159D01*
X193335Y74516D01*
X194075Y75084D01*
X209109Y90118D01*
X210070D01*
X211422Y90481D01*
X212634Y91180D01*
X213623Y92170D01*
X214082Y92964D01*
X214659D01*
X215117Y92170D01*
X216107Y91180D01*
X217319Y90481D01*
X218671Y90118D01*
X219631D01*
X228300Y81449D01*
X229040Y80881D01*
X229902Y80524D01*
X230827Y80402D01*
X296173D01*
X296587Y79988D01*
X296380Y79488D01*
X294882D01*
Y68465D01*
X305905D01*
Y79488D01*
X304407D01*
X304200Y79988D01*
X304804Y80592D01*
X305530Y81849D01*
X305905Y83251D01*
Y84702D01*
X305530Y86104D01*
X304804Y87361D01*
X303778Y88387D01*
X303190Y88726D01*
Y89226D01*
X303778Y89566D01*
X304804Y90592D01*
X305530Y91849D01*
X305905Y93251D01*
Y94702D01*
X305530Y96104D01*
X304804Y97361D01*
X303778Y98387D01*
X302521Y99113D01*
X301364Y99423D01*
Y99940D01*
X301995Y100110D01*
X302941Y100656D01*
X303714Y101428D01*
X304260Y102375D01*
X304543Y103430D01*
Y103476D01*
X300394D01*
X296244D01*
Y103430D01*
X296527Y102375D01*
X297073Y101428D01*
X297846Y100656D01*
X298792Y100110D01*
X299424Y99940D01*
Y99423D01*
X298266Y99113D01*
X297009Y98387D01*
X296173Y97550D01*
X267024D01*
X266614Y97960D01*
X265874Y98528D01*
X265012Y98885D01*
X264087Y99007D01*
X233313D01*
X232634Y99686D01*
X231422Y100386D01*
X230070Y100748D01*
X228671D01*
X227319Y100386D01*
X226107Y99686D01*
X225117Y98697D01*
X224659Y97903D01*
X224081D01*
X223623Y98697D01*
X222634Y99686D01*
X221422Y100386D01*
X220070Y100748D01*
X218671D01*
X217319Y100386D01*
X216107Y99686D01*
X215117Y98697D01*
X214659Y97903D01*
X214082D01*
X213623Y98697D01*
X212634Y99686D01*
X211422Y100386D01*
X210070Y100748D01*
X208670D01*
X207319Y100386D01*
X206107Y99686D01*
X205117Y98697D01*
X204659Y97903D01*
X204082D01*
X203623Y98697D01*
X202634Y99686D01*
X201422Y100386D01*
X200070Y100748D01*
X198670D01*
X197319Y100386D01*
X196107Y99686D01*
X195117Y98697D01*
X194659Y97903D01*
X194081D01*
X193623Y98697D01*
X192634Y99686D01*
X191422Y100386D01*
X190070Y100748D01*
X188671D01*
X187319Y100386D01*
X186107Y99686D01*
X185117Y98697D01*
X184659Y97903D01*
X184081D01*
X183623Y98697D01*
X182634Y99686D01*
X181422Y100386D01*
X180070Y100748D01*
X178671D01*
X177319Y100386D01*
X176107Y99686D01*
X175117Y98697D01*
X174417Y97485D01*
X174055Y96133D01*
Y94734D01*
X174417Y93382D01*
X175117Y92170D01*
X176107Y91180D01*
X176382Y91021D01*
X176447Y90526D01*
X155459Y69538D01*
X154892Y68798D01*
X154534Y67936D01*
X154413Y67011D01*
Y58492D01*
X153951Y58301D01*
X152961Y59291D01*
Y83969D01*
X159109Y90118D01*
X160070D01*
X161422Y90481D01*
X162634Y91180D01*
X163623Y92170D01*
X164323Y93382D01*
X164685Y94734D01*
Y96133D01*
X164323Y97485D01*
X163623Y98697D01*
X162634Y99686D01*
X161422Y100386D01*
X160070Y100748D01*
X158670D01*
X157319Y100386D01*
X156107Y99686D01*
X155117Y98697D01*
X154659Y97903D01*
X154081D01*
X153623Y98697D01*
X152944Y99376D01*
Y103953D01*
X169109Y120118D01*
X170070D01*
X171422Y120481D01*
X172634Y121180D01*
X173623Y122170D01*
X174082Y122964D01*
X174659D01*
X175117Y122170D01*
X176107Y121180D01*
X177319Y120481D01*
X178671Y120118D01*
X180070D01*
X181422Y120481D01*
X182634Y121180D01*
X183623Y122170D01*
X184081Y122964D01*
X184659D01*
X185117Y122170D01*
X186107Y121180D01*
X187319Y120481D01*
X188671Y120118D01*
X190070D01*
X191422Y120481D01*
X192634Y121180D01*
X193623Y122170D01*
X194081Y122964D01*
X194659D01*
X195117Y122170D01*
X196107Y121180D01*
X197319Y120481D01*
X198670Y120118D01*
X200070D01*
X201422Y120481D01*
X202634Y121180D01*
X203623Y122170D01*
X204082Y122964D01*
X204659D01*
X205117Y122170D01*
X206107Y121180D01*
X207319Y120481D01*
X208670Y120118D01*
X210070D01*
X211422Y120481D01*
X212634Y121180D01*
X213623Y122170D01*
X214082Y122964D01*
X214659D01*
X215117Y122170D01*
X216107Y121180D01*
X217319Y120481D01*
X218671Y120118D01*
X220070D01*
X221422Y120481D01*
X222634Y121180D01*
X223555Y122102D01*
X224055Y122006D01*
Y120118D01*
X234685D01*
Y121859D01*
X274685D01*
X275610Y121981D01*
X276472Y122338D01*
X277212Y122906D01*
X295015Y140709D01*
X295753D01*
X297054Y141058D01*
X298221Y141731D01*
X299174Y142684D01*
X299848Y143851D01*
X300197Y145153D01*
Y146501D01*
X299848Y147802D01*
X299174Y148969D01*
X298221Y149922D01*
X297054Y150596D01*
X295753Y150945D01*
X294405D01*
X293103Y150596D01*
X291936Y149922D01*
X290983Y148969D01*
X290310Y147802D01*
X289961Y146501D01*
Y145763D01*
X273205Y129007D01*
X234685D01*
Y130748D01*
X224055D01*
Y128861D01*
X223555Y128765D01*
X222634Y129686D01*
X221422Y130386D01*
X220070Y130748D01*
X218671D01*
X217319Y130386D01*
X216107Y129686D01*
X215117Y128697D01*
X214659Y127903D01*
X214082D01*
X213623Y128697D01*
X212634Y129686D01*
X211422Y130386D01*
X210367Y130669D01*
X210217Y131226D01*
X234079Y155088D01*
X244336D01*
X244652Y154771D01*
X245761Y154131D01*
X246998Y153799D01*
X248278D01*
X249515Y154131D01*
X250623Y154771D01*
X251529Y155676D01*
X252169Y156785D01*
X252500Y158021D01*
Y159301D01*
X252169Y160538D01*
X251529Y161647D01*
X250623Y162552D01*
X249515Y163192D01*
X248278Y163524D01*
X246998D01*
X245761Y163192D01*
X244652Y162552D01*
X244336Y162235D01*
X232598D01*
X231673Y162113D01*
X230812Y161757D01*
X230071Y161188D01*
X199631Y130748D01*
X198670D01*
X197319Y130386D01*
X196107Y129686D01*
X195117Y128697D01*
X194659Y127903D01*
X194081D01*
X193623Y128697D01*
X192944Y129376D01*
Y149212D01*
X192822Y150137D01*
X192465Y150999D01*
X191897Y151740D01*
X179366Y164271D01*
X179557Y164733D01*
X223464D01*
X224389Y164855D01*
X225251Y165212D01*
X225992Y165780D01*
X233834Y173622D01*
X234571D01*
X235873Y173971D01*
X237040Y174645D01*
X237993Y175598D01*
X238667Y176765D01*
X239016Y178066D01*
Y179414D01*
X238667Y180716D01*
X237993Y181883D01*
X237040Y182836D01*
X235873Y183510D01*
X234571Y183858D01*
X233224D01*
X231922Y183510D01*
X230755Y182836D01*
X229802Y181883D01*
X229128Y180716D01*
X228780Y179414D01*
Y178676D01*
X221984Y171881D01*
X174330D01*
X173587Y172623D01*
X172357Y173333D01*
X170986Y173701D01*
X169565D01*
X168194Y173333D01*
X166964Y172623D01*
X166222Y171881D01*
X148739D01*
X147997Y172623D01*
X146767Y173333D01*
X145395Y173701D01*
X143975D01*
X142603Y173333D01*
X141373Y172623D01*
X140369Y171619D01*
X139659Y170389D01*
X139291Y169017D01*
Y167597D01*
X139659Y166225D01*
X140311Y165096D01*
X139910Y164789D01*
X130389Y174311D01*
X130581Y174773D01*
X162387D01*
X163312Y174894D01*
X163968Y175166D01*
X202724D01*
X203398Y174986D01*
Y178740D01*
Y182495D01*
X202724Y182314D01*
X174832D01*
X174651Y182814D01*
X175302Y183942D01*
X175669Y185313D01*
Y186734D01*
X175302Y188105D01*
X174592Y189335D01*
X173587Y190340D01*
X172792Y190799D01*
X172727Y191295D01*
X183716Y202284D01*
X184765D01*
X186137Y202651D01*
X187367Y203361D01*
X188109Y204103D01*
X205592D01*
X206334Y203361D01*
X207564Y202651D01*
X208935Y202284D01*
X210356D01*
X211727Y202651D01*
X212957Y203361D01*
X213962Y204365D01*
X214672Y205595D01*
X215039Y206967D01*
Y208387D01*
X214672Y209759D01*
X213962Y210989D01*
X212957Y211993D01*
X211727Y212703D01*
X210356Y213071D01*
X208935D01*
X207564Y212703D01*
X206334Y211993D01*
X205592Y211251D01*
X188109D01*
X187367Y211993D01*
X186137Y212703D01*
X184765Y213071D01*
X183345D01*
X181973Y212703D01*
X180743Y211993D01*
X180001Y211251D01*
X170024D01*
X122874Y258401D01*
Y259138D01*
X122525Y260440D01*
X122342Y260757D01*
X122592Y261190D01*
X139291D01*
Y259370D01*
X150079D01*
Y261190D01*
X166222D01*
X166964Y260448D01*
X168194Y259738D01*
X169565Y259370D01*
X170986D01*
X172357Y259738D01*
X173587Y260448D01*
X174330Y261190D01*
X174646D01*
X175571Y261312D01*
X176433Y261669D01*
X177173Y262237D01*
X207456Y292520D01*
X208639D01*
X210041Y292895D01*
X211298Y293621D01*
X211902Y294225D01*
X212402Y294018D01*
Y292520D01*
X223425D01*
Y303543D01*
X217456D01*
X211061Y309938D01*
X210321Y310506D01*
X209459Y310863D01*
X208534Y310985D01*
D02*
G37*
G36*
X148460Y302181D02*
X148413D01*
Y298531D01*
X152063D01*
Y298578D01*
X151780Y299633D01*
X151234Y300579D01*
X150461Y301352D01*
X149515Y301898D01*
X148460Y302181D01*
D02*
G37*
G36*
X138460D02*
X138413D01*
Y298531D01*
X142063D01*
Y298578D01*
X141780Y299633D01*
X141234Y300579D01*
X140461Y301352D01*
X139515Y301898D01*
X138460Y302181D01*
D02*
G37*
G36*
X147413D02*
X147367D01*
X146312Y301898D01*
X145366Y301352D01*
X144593Y300579D01*
X144047Y299633D01*
X143764Y298578D01*
Y298531D01*
X147413D01*
Y302181D01*
D02*
G37*
G36*
X157413D02*
X157367D01*
X156312Y301898D01*
X155366Y301352D01*
X154593Y300579D01*
X154047Y299633D01*
X153764Y298578D01*
Y298531D01*
X157413D01*
Y302181D01*
D02*
G37*
G36*
X152063Y297531D02*
X148413D01*
Y293882D01*
X148460D01*
X149515Y294165D01*
X150461Y294711D01*
X151234Y295483D01*
X151780Y296430D01*
X152063Y297485D01*
Y297531D01*
D02*
G37*
G36*
X147413D02*
X143764D01*
Y297485D01*
X144047Y296430D01*
X144593Y295483D01*
X145366Y294711D01*
X146312Y294165D01*
X147367Y293882D01*
X147413D01*
Y297531D01*
D02*
G37*
G36*
X142063D02*
X138413D01*
Y293882D01*
X138460D01*
X139515Y294165D01*
X140461Y294711D01*
X141234Y295483D01*
X141780Y296430D01*
X142063Y297485D01*
Y297531D01*
D02*
G37*
G36*
X246957Y293321D02*
Y290067D01*
X250211D01*
X249957Y291017D01*
X249462Y291873D01*
X248763Y292572D01*
X247906Y293067D01*
X246957Y293321D01*
D02*
G37*
G36*
X245957D02*
X245007Y293067D01*
X244150Y292572D01*
X243451Y291873D01*
X242957Y291017D01*
X242702Y290067D01*
X245957D01*
Y293321D01*
D02*
G37*
G36*
X298058Y305512D02*
X296430D01*
X294832Y305194D01*
X293328Y304571D01*
X291974Y303666D01*
X290822Y302514D01*
X289917Y301160D01*
X289294Y299656D01*
X288976Y298058D01*
Y296430D01*
X289294Y294832D01*
X289917Y293328D01*
X290822Y291974D01*
X291974Y290822D01*
X293328Y289917D01*
X294832Y289294D01*
X296430Y288976D01*
X298058D01*
X299656Y289294D01*
X301160Y289917D01*
X302514Y290822D01*
X303666Y291974D01*
X304571Y293328D01*
X305194Y294832D01*
X305512Y296430D01*
Y298058D01*
X305194Y299656D01*
X304571Y301160D01*
X303666Y302514D01*
X302514Y303666D01*
X301160Y304571D01*
X299656Y305194D01*
X298058Y305512D01*
D02*
G37*
G36*
X18531D02*
X16902D01*
X15305Y305194D01*
X13800Y304571D01*
X12446Y303666D01*
X11295Y302514D01*
X10390Y301160D01*
X9767Y299656D01*
X9449Y298058D01*
Y296430D01*
X9767Y294832D01*
X10390Y293328D01*
X11295Y291974D01*
X12446Y290822D01*
X13800Y289917D01*
X15305Y289294D01*
X16902Y288976D01*
X18531D01*
X20128Y289294D01*
X21633Y289917D01*
X22987Y290822D01*
X24138Y291974D01*
X25043Y293328D01*
X25666Y294832D01*
X25984Y296430D01*
Y298058D01*
X25666Y299656D01*
X25043Y301160D01*
X24138Y302514D01*
X22987Y303666D01*
X21633Y304571D01*
X20128Y305194D01*
X18531Y305512D01*
D02*
G37*
G36*
X265354Y294685D02*
X255118D01*
Y284449D01*
X265354D01*
Y294685D01*
D02*
G37*
G36*
X30602Y281315D02*
X27543D01*
Y278256D01*
X30602D01*
Y281315D01*
D02*
G37*
G36*
Y277256D02*
X27543D01*
Y274197D01*
X30602D01*
Y277256D01*
D02*
G37*
G36*
X285097Y279921D02*
X283801D01*
X282549Y279586D01*
X281427Y278938D01*
X280511Y278022D01*
X279863Y276900D01*
X279528Y275648D01*
Y274352D01*
X279863Y273100D01*
X280221Y272480D01*
X279971Y272047D01*
X279528D01*
Y270700D01*
X272087D01*
X271162Y270578D01*
X270300Y270221D01*
X269560Y269653D01*
X254284Y254378D01*
X253716Y253637D01*
X253359Y252775D01*
X253237Y251850D01*
Y243452D01*
X252729Y242944D01*
X223622D01*
X222697Y242822D01*
X221835Y242465D01*
X221095Y241897D01*
X221095Y241897D01*
X209985Y230787D01*
X208935D01*
X207564Y230420D01*
X206334Y229710D01*
X205592Y228967D01*
X189449D01*
Y230787D01*
X178662D01*
Y220000D01*
X189449D01*
Y221820D01*
X205592D01*
X206334Y221078D01*
X207564Y220368D01*
X208935Y220000D01*
X210356D01*
X211727Y220368D01*
X212957Y221078D01*
X213962Y222082D01*
X214672Y223312D01*
X215039Y224683D01*
Y225733D01*
X225102Y235796D01*
X252729D01*
X253487Y235038D01*
X254721Y234326D01*
X256098Y233957D01*
X257524D01*
X258900Y234326D01*
X260135Y235038D01*
X260893Y235796D01*
X281000D01*
X299182Y217614D01*
Y184984D01*
X295143Y180945D01*
X294405D01*
X293103Y180596D01*
X291936Y179922D01*
X290983Y178969D01*
X290310Y177802D01*
X289961Y176501D01*
Y175153D01*
X290310Y173851D01*
X290983Y172684D01*
X291936Y171731D01*
X293103Y171057D01*
X294405Y170709D01*
X295753D01*
X297054Y171057D01*
X298221Y171731D01*
X299174Y172684D01*
X299848Y173851D01*
X300197Y175153D01*
Y175891D01*
X305283Y180977D01*
X305851Y181717D01*
X306208Y182579D01*
X306330Y183504D01*
Y219094D01*
X306208Y220020D01*
X305851Y220881D01*
X305283Y221622D01*
X293371Y233533D01*
X293621Y233966D01*
X293657Y233957D01*
X295083D01*
X296460Y234326D01*
X297694Y235038D01*
X298702Y236046D01*
X299414Y237281D01*
X299783Y238657D01*
Y240083D01*
X299414Y241459D01*
X298702Y242694D01*
X297694Y243702D01*
X296460Y244414D01*
X295083Y244783D01*
X293657D01*
X292281Y244414D01*
X291046Y243702D01*
X290038Y242694D01*
X289325Y241459D01*
X288957Y240083D01*
Y238657D01*
X288966Y238621D01*
X288533Y238371D01*
X285008Y241897D01*
X284267Y242465D01*
X283405Y242822D01*
X282480Y242944D01*
X260893D01*
X260385Y243452D01*
Y250370D01*
X273567Y263552D01*
X279528D01*
Y262205D01*
X289370D01*
Y272047D01*
X288927D01*
X288677Y272480D01*
X289035Y273100D01*
X289370Y274352D01*
Y275648D01*
X289035Y276900D01*
X288387Y278022D01*
X287471Y278938D01*
X286348Y279586D01*
X285097Y279921D01*
D02*
G37*
G36*
X250211Y289067D02*
X242702D01*
X242883Y288393D01*
Y269561D01*
X235450Y262129D01*
X234967Y262258D01*
X234927Y262408D01*
X234253Y263576D01*
X233300Y264528D01*
X232133Y265202D01*
X230831Y265551D01*
X230094D01*
X227307Y268338D01*
X226566Y268906D01*
X225704Y269263D01*
X224779Y269385D01*
X189039D01*
X188114Y269263D01*
X187252Y268906D01*
X186512Y268338D01*
X170615Y252441D01*
X169565D01*
X168194Y252073D01*
X166964Y251363D01*
X166222Y250621D01*
X148739D01*
X147997Y251363D01*
X146767Y252073D01*
X145395Y252441D01*
X143975D01*
X142603Y252073D01*
X141373Y251363D01*
X140369Y250359D01*
X139659Y249129D01*
X139291Y247757D01*
Y246337D01*
X139659Y244965D01*
X140369Y243735D01*
X141373Y242731D01*
X142603Y242021D01*
X143975Y241653D01*
X145395D01*
X146767Y242021D01*
X147997Y242731D01*
X148739Y243473D01*
X166222D01*
X166964Y242731D01*
X168194Y242021D01*
X169565Y241653D01*
X170986D01*
X172357Y242021D01*
X173587Y242731D01*
X174592Y243735D01*
X175302Y244965D01*
X175669Y246337D01*
Y247387D01*
X190520Y262237D01*
X196347D01*
X196618Y261737D01*
X196403Y260933D01*
X200157D01*
Y259933D01*
X196403D01*
X196658Y258983D01*
X197152Y258127D01*
X197851Y257428D01*
X198460Y257076D01*
X208552Y246984D01*
X209293Y246416D01*
X210154Y246059D01*
X211079Y245937D01*
X227887D01*
X228812Y246059D01*
X229674Y246416D01*
X230414Y246984D01*
X248984Y265554D01*
X248984Y265554D01*
X249552Y266294D01*
X249909Y267156D01*
X250030Y268081D01*
X250030Y268081D01*
Y288393D01*
X250211Y289067D01*
D02*
G37*
G36*
X91510Y257965D02*
X88256D01*
Y254710D01*
X89206Y254965D01*
X90062Y255459D01*
X90762Y256158D01*
X91256Y257015D01*
X91510Y257965D01*
D02*
G37*
G36*
X87256D02*
X84002D01*
X84256Y257015D01*
X84750Y256158D01*
X85450Y255459D01*
X86306Y254965D01*
X87256Y254710D01*
Y257965D01*
D02*
G37*
G36*
X131616Y230787D02*
X130195D01*
X128824Y230420D01*
X127594Y229710D01*
X126852Y228967D01*
X110709D01*
Y230787D01*
X99921D01*
Y220000D01*
X110709D01*
Y221820D01*
X126852D01*
X127594Y221078D01*
X128824Y220368D01*
X130195Y220000D01*
X131616D01*
X132987Y220368D01*
X134217Y221078D01*
X135222Y222082D01*
X135932Y223312D01*
X136299Y224683D01*
Y226104D01*
X135932Y227476D01*
X135222Y228705D01*
X134217Y229710D01*
X132987Y230420D01*
X131616Y230787D01*
D02*
G37*
G36*
X284752Y217293D02*
Y214752D01*
X287293D01*
X287110Y215436D01*
X286706Y216135D01*
X286135Y216706D01*
X285436Y217110D01*
X284752Y217293D01*
D02*
G37*
G36*
X283752Y217293D02*
X283068Y217110D01*
X282369Y216706D01*
X281798Y216135D01*
X281394Y215436D01*
X281211Y214752D01*
X283752D01*
Y217293D01*
D02*
G37*
G36*
X131616Y213071D02*
X130195D01*
X128824Y212703D01*
X127594Y211993D01*
X126852Y211251D01*
X109369D01*
X108627Y211993D01*
X107397Y212703D01*
X106025Y213071D01*
X104605D01*
X103233Y212703D01*
X102003Y211993D01*
X100999Y210989D01*
X100289Y209759D01*
X99921Y208387D01*
Y206967D01*
X100289Y205595D01*
X100999Y204365D01*
X102003Y203361D01*
X103233Y202651D01*
X104605Y202284D01*
X106025D01*
X107397Y202651D01*
X108627Y203361D01*
X109369Y204103D01*
X126852D01*
X127594Y203361D01*
X128824Y202651D01*
X130195Y202284D01*
X131616D01*
X132987Y202651D01*
X134217Y203361D01*
X135222Y204365D01*
X135932Y205595D01*
X136299Y206967D01*
Y208387D01*
X135932Y209759D01*
X135222Y210989D01*
X134217Y211993D01*
X132987Y212703D01*
X131616Y213071D01*
D02*
G37*
G36*
X287293Y213752D02*
X284252D01*
X281211D01*
X281394Y213068D01*
X281538Y212818D01*
X281533Y212796D01*
X280708Y211971D01*
X280125Y210962D01*
X279823Y209835D01*
Y208669D01*
Y199823D01*
X288681D01*
Y201334D01*
X289143Y201525D01*
X289536Y201132D01*
Y192228D01*
X277260Y179952D01*
X267837D01*
X267316Y180473D01*
X266149Y181147D01*
X264847Y181496D01*
X263499D01*
X262198Y181147D01*
X261031Y180473D01*
X260078Y179521D01*
X259404Y178354D01*
X259055Y177052D01*
Y175704D01*
X259404Y174402D01*
X260078Y173235D01*
X261031Y172283D01*
X262198Y171609D01*
X263499Y171260D01*
X264847D01*
X266149Y171609D01*
X267316Y172283D01*
X267837Y172804D01*
X278740D01*
X279665Y172926D01*
X280527Y173283D01*
X281267Y173851D01*
X295637Y188221D01*
X296205Y188961D01*
X296562Y189823D01*
X296684Y190748D01*
X296684Y190748D01*
Y202612D01*
X296562Y203537D01*
X296205Y204399D01*
X295637Y205139D01*
X289336Y211440D01*
X288596Y212008D01*
X287734Y212365D01*
X287352Y212415D01*
X286972Y212796D01*
X286966Y212818D01*
X287110Y213068D01*
X287293Y213752D01*
D02*
G37*
G36*
X204398Y182495D02*
Y179240D01*
X207652D01*
X207398Y180190D01*
X206903Y181046D01*
X206204Y181746D01*
X205347Y182240D01*
X204398Y182495D01*
D02*
G37*
G36*
X207652Y178240D02*
X204398D01*
Y174986D01*
X205347Y175240D01*
X206204Y175735D01*
X206903Y176434D01*
X207398Y177290D01*
X207652Y178240D01*
D02*
G37*
G36*
X264847Y151496D02*
X263499D01*
X262198Y151147D01*
X261031Y150473D01*
X260078Y149521D01*
X259404Y148354D01*
X259055Y147052D01*
Y145704D01*
X259404Y144403D01*
X260078Y143235D01*
X261031Y142282D01*
X262198Y141609D01*
X263499Y141260D01*
X264847D01*
X266149Y141609D01*
X267316Y142282D01*
X268269Y143235D01*
X268942Y144403D01*
X269291Y145704D01*
Y147052D01*
X268942Y148354D01*
X268269Y149521D01*
X267316Y150473D01*
X266149Y151147D01*
X264847Y151496D01*
D02*
G37*
G36*
X300940Y108126D02*
X300894D01*
Y104476D01*
X304543D01*
Y104523D01*
X304260Y105578D01*
X303714Y106524D01*
X302941Y107297D01*
X301995Y107843D01*
X300940Y108126D01*
D02*
G37*
G36*
X299894D02*
X299847D01*
X298792Y107843D01*
X297846Y107297D01*
X297073Y106524D01*
X296527Y105578D01*
X296244Y104523D01*
Y104476D01*
X299894D01*
Y108126D01*
D02*
G37*
G36*
X169891Y99386D02*
X169870D01*
Y95933D01*
X173323D01*
Y95954D01*
X173054Y96959D01*
X172533Y97860D01*
X171797Y98596D01*
X170896Y99117D01*
X169891Y99386D01*
D02*
G37*
G36*
X168870D02*
X168850D01*
X167844Y99117D01*
X166943Y98596D01*
X166207Y97860D01*
X165687Y96959D01*
X165418Y95954D01*
Y95933D01*
X168870D01*
Y99386D01*
D02*
G37*
G36*
X27008Y105512D02*
X15591D01*
Y94095D01*
X27008D01*
Y97543D01*
X27508Y97677D01*
X27821Y97134D01*
X28630Y96325D01*
X29621Y95753D01*
X30727Y95457D01*
X30799D01*
Y99803D01*
Y104150D01*
X30727D01*
X29621Y103853D01*
X28630Y103281D01*
X27821Y102472D01*
X27508Y101929D01*
X27008Y102063D01*
Y105512D01*
D02*
G37*
G36*
X173323Y94933D02*
X169870D01*
Y91480D01*
X169891D01*
X170896Y91750D01*
X171797Y92270D01*
X172533Y93006D01*
X173054Y93907D01*
X173323Y94913D01*
Y94933D01*
D02*
G37*
G36*
X168870D02*
X165418D01*
Y94913D01*
X165687Y93907D01*
X166207Y93006D01*
X166943Y92270D01*
X167844Y91750D01*
X168850Y91480D01*
X168870D01*
Y94933D01*
D02*
G37*
G36*
X281615Y68779D02*
X280195D01*
X278823Y68412D01*
X277594Y67702D01*
X276852Y66960D01*
X260709D01*
Y68779D01*
X249921D01*
Y57992D01*
X260709D01*
Y59812D01*
X276852D01*
X277594Y59070D01*
X278823Y58360D01*
X280195Y57992D01*
X281615D01*
X282987Y58360D01*
X284217Y59070D01*
X285221Y60074D01*
X285931Y61304D01*
X286299Y62676D01*
Y64096D01*
X285931Y65468D01*
X285221Y66698D01*
X284217Y67702D01*
X282987Y68412D01*
X281615Y68779D01*
D02*
G37*
G36*
X35146Y60841D02*
Y57587D01*
X38400D01*
X38146Y58536D01*
X37651Y59393D01*
X36952Y60092D01*
X36095Y60587D01*
X35146Y60841D01*
D02*
G37*
G36*
X34146D02*
X33196Y60587D01*
X32339Y60092D01*
X31640Y59393D01*
X31146Y58536D01*
X30891Y57587D01*
X34146D01*
Y60841D01*
D02*
G37*
G36*
X76484Y59266D02*
Y56012D01*
X79739D01*
X79484Y56962D01*
X78990Y57818D01*
X78290Y58517D01*
X77434Y59012D01*
X76484Y59266D01*
D02*
G37*
G36*
X75484D02*
X74534Y59012D01*
X73678Y58517D01*
X72979Y57818D01*
X72484Y56962D01*
X72230Y56012D01*
X75484D01*
Y59266D01*
D02*
G37*
G36*
X215170Y65197D02*
X213822D01*
X212521Y64848D01*
X211353Y64174D01*
X210401Y63221D01*
X209727Y62054D01*
X209378Y60753D01*
Y59405D01*
X209727Y58103D01*
X210401Y56936D01*
X211353Y55983D01*
X212521Y55309D01*
X213822Y54961D01*
X215170D01*
X216472Y55309D01*
X217639Y55983D01*
X218591Y56936D01*
X219265Y58103D01*
X219614Y59405D01*
Y60753D01*
X219265Y62054D01*
X218591Y63221D01*
X217639Y64174D01*
X216472Y64848D01*
X215170Y65197D01*
D02*
G37*
G36*
X198170D02*
X196822D01*
X195520Y64848D01*
X194353Y64174D01*
X193401Y63221D01*
X192727Y62054D01*
X192378Y60753D01*
Y59405D01*
X192727Y58103D01*
X193401Y56936D01*
X194353Y55983D01*
X195520Y55309D01*
X196822Y54961D01*
X198170D01*
X199471Y55309D01*
X200639Y55983D01*
X201591Y56936D01*
X202265Y58103D01*
X202614Y59405D01*
Y60753D01*
X202265Y62054D01*
X201591Y63221D01*
X200639Y64174D01*
X199471Y64848D01*
X198170Y65197D01*
D02*
G37*
G36*
X125674D02*
X124326D01*
X123024Y64848D01*
X121857Y64174D01*
X120905Y63221D01*
X120231Y62054D01*
X119882Y60753D01*
Y59405D01*
X120231Y58103D01*
X120905Y56936D01*
X121857Y55983D01*
X123024Y55309D01*
X124326Y54961D01*
X125674D01*
X126976Y55309D01*
X128143Y55983D01*
X129095Y56936D01*
X129769Y58103D01*
X130118Y59405D01*
Y60753D01*
X129769Y62054D01*
X129095Y63221D01*
X128143Y64174D01*
X126976Y64848D01*
X125674Y65197D01*
D02*
G37*
G36*
X108154D02*
X106807D01*
X105505Y64848D01*
X104338Y64174D01*
X103385Y63221D01*
X102711Y62054D01*
X102362Y60753D01*
Y59405D01*
X102711Y58103D01*
X103385Y56936D01*
X104338Y55983D01*
X105505Y55309D01*
X106807Y54961D01*
X108154D01*
X109456Y55309D01*
X110623Y55983D01*
X111576Y56936D01*
X112250Y58103D01*
X112599Y59405D01*
Y60753D01*
X112250Y62054D01*
X111576Y63221D01*
X110623Y64174D01*
X109456Y64848D01*
X108154Y65197D01*
D02*
G37*
G36*
X38400Y56587D02*
X35146D01*
Y53332D01*
X36095Y53587D01*
X36952Y54081D01*
X37651Y54780D01*
X38146Y55637D01*
X38400Y56587D01*
D02*
G37*
G36*
X34146D02*
X30891D01*
X31146Y55637D01*
X31640Y54780D01*
X32339Y54081D01*
X33196Y53587D01*
X34146Y53332D01*
Y56587D01*
D02*
G37*
G36*
X25984Y62205D02*
X15748D01*
Y51968D01*
X25984D01*
Y62205D01*
D02*
G37*
G36*
X79739Y55012D02*
X76484D01*
Y51757D01*
X77434Y52012D01*
X78290Y52506D01*
X78990Y53206D01*
X79484Y54062D01*
X79739Y55012D01*
D02*
G37*
G36*
X75484D02*
X72230D01*
X72484Y54062D01*
X72979Y53206D01*
X73678Y52506D01*
X74534Y52012D01*
X75484Y51757D01*
Y55012D01*
D02*
G37*
G36*
X67323Y60630D02*
X57087D01*
Y50394D01*
X67323D01*
Y60630D01*
D02*
G37*
G36*
X280405Y49701D02*
X280375D01*
X279349Y49426D01*
X279032Y49243D01*
X257188D01*
X256871Y49426D01*
X255846Y49701D01*
X255815D01*
Y45669D01*
Y41638D01*
X255846D01*
X256871Y41913D01*
X257188Y42096D01*
X279032D01*
X279349Y41913D01*
X280375Y41638D01*
X280405D01*
Y45669D01*
Y49701D01*
D02*
G37*
G36*
X281436D02*
X281405D01*
Y46169D01*
X284937D01*
Y46200D01*
X284662Y47225D01*
X284131Y48145D01*
X283381Y48895D01*
X282462Y49426D01*
X281436Y49701D01*
D02*
G37*
G36*
X254815D02*
X254784D01*
X253759Y49426D01*
X252840Y48895D01*
X252089Y48145D01*
X251558Y47225D01*
X251284Y46200D01*
Y46169D01*
X254815D01*
Y49701D01*
D02*
G37*
G36*
X284937Y45169D02*
X281405D01*
Y41638D01*
X281436D01*
X282462Y41913D01*
X283381Y42443D01*
X284131Y43194D01*
X284662Y44113D01*
X284937Y45139D01*
Y45169D01*
D02*
G37*
G36*
X254815D02*
X251284D01*
Y45139D01*
X251558Y44113D01*
X252089Y43194D01*
X252840Y42443D01*
X253759Y41913D01*
X254784Y41638D01*
X254815D01*
Y45169D01*
D02*
G37*
G36*
X215170Y35197D02*
X213822D01*
X212521Y34848D01*
X211353Y34174D01*
X210401Y33221D01*
X209727Y32054D01*
X209378Y30753D01*
Y29405D01*
X209727Y28103D01*
X210401Y26936D01*
X211353Y25983D01*
X212521Y25310D01*
X213822Y24961D01*
X215170D01*
X216472Y25310D01*
X217639Y25983D01*
X218591Y26936D01*
X219265Y28103D01*
X219614Y29405D01*
Y30753D01*
X219265Y32054D01*
X218591Y33221D01*
X217639Y34174D01*
X216472Y34848D01*
X215170Y35197D01*
D02*
G37*
G36*
X198170D02*
X196822D01*
X195520Y34848D01*
X194353Y34174D01*
X193401Y33221D01*
X192727Y32054D01*
X192378Y30753D01*
Y29405D01*
X192727Y28103D01*
X193401Y26936D01*
X194353Y25983D01*
X195520Y25310D01*
X196822Y24961D01*
X198170D01*
X199471Y25310D01*
X200639Y25983D01*
X201591Y26936D01*
X202265Y28103D01*
X202614Y29405D01*
Y30753D01*
X202265Y32054D01*
X201591Y33221D01*
X200639Y34174D01*
X199471Y34848D01*
X198170Y35197D01*
D02*
G37*
G36*
X181170D02*
X179822D01*
X178521Y34848D01*
X177353Y34174D01*
X176400Y33221D01*
X175727Y32054D01*
X175378Y30753D01*
Y29405D01*
X175727Y28103D01*
X176400Y26936D01*
X177353Y25983D01*
X178521Y25310D01*
X179822Y24961D01*
X181170D01*
X182472Y25310D01*
X183639Y25983D01*
X184591Y26936D01*
X185265Y28103D01*
X185614Y29405D01*
Y30753D01*
X185265Y32054D01*
X184591Y33221D01*
X183639Y34174D01*
X182472Y34848D01*
X181170Y35197D01*
D02*
G37*
G36*
X163666D02*
X162318D01*
X161017Y34848D01*
X159850Y34174D01*
X158897Y33221D01*
X158223Y32054D01*
X157874Y30753D01*
Y29405D01*
X158223Y28103D01*
X158897Y26936D01*
X159850Y25983D01*
X161017Y25310D01*
X162318Y24961D01*
X163666D01*
X164968Y25310D01*
X166135Y25983D01*
X167088Y26936D01*
X167762Y28103D01*
X168110Y29405D01*
Y30753D01*
X167762Y32054D01*
X167088Y33221D01*
X166135Y34174D01*
X164968Y34848D01*
X163666Y35197D01*
D02*
G37*
G36*
X144768D02*
X143421D01*
X142119Y34848D01*
X140952Y34174D01*
X139999Y33221D01*
X139325Y32054D01*
X138976Y30753D01*
Y29405D01*
X139325Y28103D01*
X139999Y26936D01*
X140952Y25983D01*
X142119Y25310D01*
X143421Y24961D01*
X144768D01*
X146070Y25310D01*
X147237Y25983D01*
X148190Y26936D01*
X148864Y28103D01*
X149213Y29405D01*
Y30753D01*
X148864Y32054D01*
X148190Y33221D01*
X147237Y34174D01*
X146070Y34848D01*
X144768Y35197D01*
D02*
G37*
G36*
X125674D02*
X124326D01*
X123024Y34848D01*
X121857Y34174D01*
X120905Y33221D01*
X120231Y32054D01*
X119882Y30753D01*
Y29405D01*
X120231Y28103D01*
X120905Y26936D01*
X121857Y25983D01*
X123024Y25310D01*
X124326Y24961D01*
X125674D01*
X126976Y25310D01*
X128143Y25983D01*
X129095Y26936D01*
X129769Y28103D01*
X130118Y29405D01*
Y30753D01*
X129769Y32054D01*
X129095Y33221D01*
X128143Y34174D01*
X126976Y34848D01*
X125674Y35197D01*
D02*
G37*
G36*
X108154D02*
X106807D01*
X105505Y34848D01*
X104338Y34174D01*
X103385Y33221D01*
X102711Y32054D01*
X102362Y30753D01*
Y29405D01*
X102711Y28103D01*
X103385Y26936D01*
X104338Y25983D01*
X105505Y25310D01*
X106807Y24961D01*
X108154D01*
X109456Y25310D01*
X110623Y25983D01*
X111576Y26936D01*
X112250Y28103D01*
X112599Y29405D01*
Y30753D01*
X112250Y32054D01*
X111576Y33221D01*
X110623Y34174D01*
X109456Y34848D01*
X108154Y35197D01*
D02*
G37*
G36*
X263492Y24424D02*
Y21169D01*
X266746D01*
X266492Y22119D01*
X265998Y22975D01*
X265298Y23675D01*
X264442Y24169D01*
X263492Y24424D01*
D02*
G37*
G36*
X262492D02*
X261542Y24169D01*
X260686Y23675D01*
X259986Y22975D01*
X259492Y22119D01*
X259238Y21169D01*
X262492D01*
Y24424D01*
D02*
G37*
G36*
X45972Y22645D02*
Y19594D01*
X49023D01*
X48789Y20468D01*
X48320Y21280D01*
X47658Y21942D01*
X46846Y22411D01*
X45972Y22645D01*
D02*
G37*
G36*
X192835Y20866D02*
X181811D01*
Y19368D01*
X181311Y19161D01*
X180707Y19765D01*
X179450Y20491D01*
X178049Y20866D01*
X176597D01*
X175195Y20491D01*
X173939Y19765D01*
X172912Y18739D01*
X172573Y18151D01*
X172073D01*
X171733Y18739D01*
X170707Y19765D01*
X169450Y20491D01*
X168049Y20866D01*
X166597D01*
X165195Y20491D01*
X163938Y19765D01*
X162912Y18739D01*
X162573Y18151D01*
X162073D01*
X161733Y18739D01*
X160707Y19765D01*
X159450Y20491D01*
X158048Y20866D01*
X156597D01*
X155195Y20491D01*
X153938Y19765D01*
X152912Y18739D01*
X152573Y18151D01*
X152073D01*
X151733Y18739D01*
X150707Y19765D01*
X149450Y20491D01*
X148048Y20866D01*
X146597D01*
X145195Y20491D01*
X143939Y19765D01*
X142912Y18739D01*
X142573Y18151D01*
X142073D01*
X141733Y18739D01*
X140707Y19765D01*
X139450Y20491D01*
X138049Y20866D01*
X136597D01*
X135195Y20491D01*
X133939Y19765D01*
X132912Y18739D01*
X132573Y18151D01*
X132073D01*
X131733Y18739D01*
X130707Y19765D01*
X129450Y20491D01*
X128049Y20866D01*
X126597D01*
X125195Y20491D01*
X123939Y19765D01*
X122912Y18739D01*
X122187Y17482D01*
X121811Y16080D01*
Y14629D01*
X122187Y13227D01*
X122912Y11970D01*
X123939Y10944D01*
X125195Y10218D01*
X126597Y9843D01*
X128049D01*
X129450Y10218D01*
X130707Y10944D01*
X131733Y11970D01*
X132073Y12558D01*
X132573D01*
X132912Y11970D01*
X133939Y10944D01*
X135195Y10218D01*
X136597Y9843D01*
X138049D01*
X139450Y10218D01*
X140707Y10944D01*
X141733Y11970D01*
X142073Y12558D01*
X142573D01*
X142912Y11970D01*
X143939Y10944D01*
X145195Y10218D01*
X146597Y9843D01*
X148048D01*
X149450Y10218D01*
X150707Y10944D01*
X151733Y11970D01*
X152073Y12558D01*
X152573D01*
X152912Y11970D01*
X153938Y10944D01*
X155195Y10218D01*
X156597Y9843D01*
X158048D01*
X159450Y10218D01*
X160707Y10944D01*
X161733Y11970D01*
X162073Y12558D01*
X162573D01*
X162912Y11970D01*
X163938Y10944D01*
X165195Y10218D01*
X166597Y9843D01*
X168049D01*
X169450Y10218D01*
X170707Y10944D01*
X171733Y11970D01*
X172073Y12558D01*
X172573D01*
X172912Y11970D01*
X173939Y10944D01*
X175195Y10218D01*
X176597Y9843D01*
X178049D01*
X179450Y10218D01*
X180707Y10944D01*
X181311Y11548D01*
X181811Y11341D01*
Y9843D01*
X192835D01*
Y20866D01*
D02*
G37*
G36*
X266746Y20169D02*
X263492D01*
Y16915D01*
X264442Y17169D01*
X265298Y17664D01*
X265998Y18363D01*
X266492Y19219D01*
X266746Y20169D01*
D02*
G37*
G36*
X262492D02*
X259238D01*
X259492Y19219D01*
X259986Y18363D01*
X260686Y17664D01*
X261542Y17169D01*
X262492Y16915D01*
Y20169D01*
D02*
G37*
G36*
X49023Y18594D02*
X45972D01*
Y15544D01*
X46846Y15778D01*
X47658Y16247D01*
X48320Y16909D01*
X48789Y17721D01*
X49023Y18594D01*
D02*
G37*
G36*
X42520Y24016D02*
X32677D01*
Y14173D01*
X42520D01*
Y16307D01*
X43020Y16514D01*
X43287Y16247D01*
X44099Y15778D01*
X44972Y15544D01*
Y19094D01*
Y22645D01*
X44099Y22411D01*
X43287Y21942D01*
X43020Y21675D01*
X42520Y21882D01*
Y24016D01*
D02*
G37*
G36*
X298058Y25984D02*
X296430D01*
X294832Y25666D01*
X293328Y25043D01*
X291974Y24138D01*
X290822Y22987D01*
X289917Y21633D01*
X289294Y20128D01*
X288976Y18531D01*
Y16902D01*
X289294Y15305D01*
X289917Y13800D01*
X290822Y12446D01*
X291974Y11295D01*
X293328Y10390D01*
X294832Y9767D01*
X296430Y9449D01*
X298058D01*
X299656Y9767D01*
X301160Y10390D01*
X302514Y11295D01*
X303666Y12446D01*
X304571Y13800D01*
X305194Y15305D01*
X305512Y16902D01*
Y18531D01*
X305194Y20128D01*
X304571Y21633D01*
X303666Y22987D01*
X302514Y24138D01*
X301160Y25043D01*
X299656Y25666D01*
X298058Y25984D01*
D02*
G37*
G36*
X18531D02*
X16902D01*
X15305Y25666D01*
X13800Y25043D01*
X12446Y24138D01*
X11295Y22987D01*
X10390Y21633D01*
X9767Y20128D01*
X9449Y18531D01*
Y16902D01*
X9767Y15305D01*
X10390Y13800D01*
X11295Y12446D01*
X12446Y11295D01*
X13800Y10390D01*
X15305Y9767D01*
X16902Y9449D01*
X18531D01*
X20128Y9767D01*
X21633Y10390D01*
X22987Y11295D01*
X24138Y12446D01*
X25043Y13800D01*
X25666Y15305D01*
X25984Y16902D01*
Y18531D01*
X25666Y20128D01*
X25043Y21633D01*
X24138Y22987D01*
X22987Y24138D01*
X21633Y25043D01*
X20128Y25666D01*
X18531Y25984D01*
D02*
G37*
%LPD*%
G36*
X139291Y181920D02*
X122780D01*
X118462Y186238D01*
X117722Y186806D01*
X116860Y187163D01*
X115935Y187285D01*
X75246D01*
X74321Y187163D01*
X73460Y186806D01*
X72719Y186238D01*
X72719Y186238D01*
X61055Y174574D01*
X60488Y173834D01*
X60131Y172972D01*
X60009Y172047D01*
X60131Y171122D01*
X60264Y170801D01*
X59986Y170385D01*
X50614D01*
X48622Y172377D01*
Y176772D01*
X42860D01*
Y180331D01*
X51067Y188537D01*
X139291D01*
Y181920D01*
D02*
G37*
G36*
X117942Y176649D02*
X118294Y176040D01*
X118993Y175341D01*
X119602Y174989D01*
X155796Y138795D01*
Y127149D01*
X155687Y126959D01*
X155418Y125954D01*
Y125933D01*
X159370D01*
Y124933D01*
X155418D01*
Y124913D01*
X155687Y123907D01*
X156207Y123006D01*
X156943Y122270D01*
X157844Y121750D01*
X158850Y121481D01*
X159656D01*
X159863Y120981D01*
X146843Y107960D01*
X146275Y107220D01*
X145918Y106358D01*
X145796Y105433D01*
Y99376D01*
X145117Y98697D01*
X144659Y97903D01*
X144081D01*
X143623Y98697D01*
X142634Y99686D01*
X141422Y100386D01*
X140070Y100748D01*
X139110D01*
X122119Y117738D01*
X121379Y118306D01*
X120517Y118663D01*
X119592Y118785D01*
X74045D01*
X73741Y119182D01*
X73760Y119252D01*
Y119690D01*
X75929Y121859D01*
X95428D01*
X96107Y121180D01*
X97319Y120481D01*
X98671Y120118D01*
X100070D01*
X101422Y120481D01*
X102634Y121180D01*
X103623Y122170D01*
X104081Y122964D01*
X104659D01*
X105117Y122170D01*
X106107Y121180D01*
X107319Y120481D01*
X108670Y120118D01*
X110070D01*
X111422Y120481D01*
X112634Y121180D01*
X113623Y122170D01*
X114082Y122964D01*
X114659D01*
X115117Y122170D01*
X116107Y121180D01*
X117319Y120481D01*
X118670Y120118D01*
X120070D01*
X121422Y120481D01*
X122634Y121180D01*
X123623Y122170D01*
X124082Y122964D01*
X124659D01*
X125117Y122170D01*
X126107Y121180D01*
X127319Y120481D01*
X128671Y120118D01*
X130070D01*
X131422Y120481D01*
X132634Y121180D01*
X133623Y122170D01*
X134081Y122964D01*
X134659D01*
X135117Y122170D01*
X136107Y121180D01*
X137319Y120481D01*
X138671Y120118D01*
X140070D01*
X141422Y120481D01*
X142634Y121180D01*
X143623Y122170D01*
X144081Y122964D01*
X144659D01*
X145117Y122170D01*
X146107Y121180D01*
X147319Y120481D01*
X148670Y120118D01*
X150070D01*
X151422Y120481D01*
X152634Y121180D01*
X153623Y122170D01*
X154323Y123382D01*
X154685Y124733D01*
Y126133D01*
X154323Y127485D01*
X153623Y128697D01*
X152634Y129686D01*
X151422Y130386D01*
X150070Y130748D01*
X149109D01*
X123613Y156244D01*
Y156890D01*
X124764D01*
Y166338D01*
X120369D01*
X117369Y169338D01*
X116629Y169906D01*
X115767Y170263D01*
X114842Y170385D01*
X67628D01*
X67436Y170847D01*
X76727Y180137D01*
X86070D01*
X86374Y179741D01*
X86181Y179020D01*
Y177673D01*
X86530Y176371D01*
X87204Y175204D01*
X88157Y174251D01*
X89324Y173577D01*
X90625Y173228D01*
X91973D01*
X93275Y173577D01*
X94442Y174251D01*
X95395Y175204D01*
X96069Y176371D01*
X96417Y177673D01*
Y179020D01*
X96224Y179741D01*
X96529Y180137D01*
X114454D01*
X117942Y176649D01*
D02*
G37*
G36*
X166964Y163991D02*
X168194Y163281D01*
X169565Y162913D01*
X170615D01*
X185796Y147732D01*
Y129376D01*
X185117Y128697D01*
X184659Y127903D01*
X184081D01*
X183623Y128697D01*
X182634Y129686D01*
X181422Y130386D01*
X180070Y130748D01*
X178671D01*
X177319Y130386D01*
X176107Y129686D01*
X175117Y128697D01*
X174659Y127903D01*
X174082D01*
X173623Y128697D01*
X172634Y129686D01*
X171422Y130386D01*
X170070Y130748D01*
X168670D01*
X167319Y130386D01*
X166107Y129686D01*
X165117Y128697D01*
X164418Y127485D01*
X164055Y126133D01*
Y125361D01*
X163823Y125184D01*
X163323Y125431D01*
Y125954D01*
X163054Y126959D01*
X162944Y127149D01*
Y140275D01*
X162822Y141200D01*
X162465Y142062D01*
X161897Y142803D01*
X161897Y142803D01*
X141167Y163532D01*
X141474Y163933D01*
X142603Y163281D01*
X143975Y162913D01*
X145395D01*
X146767Y163281D01*
X147997Y163991D01*
X148739Y164733D01*
X166222D01*
X166964Y163991D01*
D02*
G37*
G36*
X97926Y157834D02*
X99003Y157212D01*
X100205Y156890D01*
X101449D01*
X102650Y157212D01*
X102803Y157300D01*
X128893Y131210D01*
X128702Y130748D01*
X128671D01*
X127319Y130386D01*
X126107Y129686D01*
X125117Y128697D01*
X124659Y127903D01*
X124082D01*
X123623Y128697D01*
X122634Y129686D01*
X121422Y130386D01*
X120070Y130748D01*
X118670D01*
X117319Y130386D01*
X116107Y129686D01*
X115117Y128697D01*
X114659Y127903D01*
X114082D01*
X113623Y128697D01*
X112634Y129686D01*
X111422Y130386D01*
X110070Y130748D01*
X108670D01*
X107319Y130386D01*
X106107Y129686D01*
X105117Y128697D01*
X104659Y127903D01*
X104081D01*
X103623Y128697D01*
X102634Y129686D01*
X101422Y130386D01*
X100070Y130748D01*
X98671D01*
X97319Y130386D01*
X96107Y129686D01*
X95428Y129007D01*
X74449D01*
X73524Y128885D01*
X72662Y128528D01*
X71922Y127960D01*
X68716Y124754D01*
X68257D01*
X67021Y124423D01*
X65912Y123783D01*
X65007Y122878D01*
X64367Y121769D01*
X64035Y120532D01*
Y119252D01*
X64054Y119182D01*
X63750Y118785D01*
X58967D01*
X42860Y134891D01*
Y150394D01*
X48819D01*
Y154788D01*
X52071Y158040D01*
X61240D01*
X61447Y157540D01*
X61089Y157183D01*
X60646Y156416D01*
X60433Y155618D01*
X67126D01*
X66913Y156416D01*
X66470Y157183D01*
X66112Y157540D01*
X66319Y158040D01*
X97719D01*
X97926Y157834D01*
D02*
G37*
G36*
X115315Y161284D02*
Y156890D01*
X116465D01*
Y154764D01*
X116513Y154406D01*
X116039Y154173D01*
X107437Y162775D01*
X107628Y163237D01*
X113362D01*
X115315Y161284D01*
D02*
G37*
G36*
X263016Y91449D02*
X263756Y90881D01*
X264618Y90524D01*
X265543Y90403D01*
X265544Y90403D01*
X296173D01*
X297009Y89566D01*
X297597Y89226D01*
Y88726D01*
X297009Y88387D01*
X296173Y87550D01*
X232307D01*
X230218Y89640D01*
X230367Y90198D01*
X231422Y90481D01*
X232634Y91180D01*
X233313Y91859D01*
X262606D01*
X263016Y91449D01*
D02*
G37*
G36*
X194457Y85574D02*
X190068Y81185D01*
X180525D01*
X180524Y81185D01*
X179599Y81063D01*
X178737Y80706D01*
X177997Y80138D01*
X177997Y80138D01*
X163056Y65197D01*
X162318D01*
X161851Y65589D01*
X161838Y65808D01*
X181967Y85937D01*
X193448D01*
X194214Y86038D01*
X194457Y85574D01*
D02*
G37*
%LPC*%
G36*
X67126Y154618D02*
X64279D01*
Y151771D01*
X65077Y151985D01*
X65844Y152428D01*
X66470Y153054D01*
X66913Y153820D01*
X67126Y154618D01*
D02*
G37*
G36*
X63279D02*
X60433D01*
X60646Y153820D01*
X61089Y153054D01*
X61715Y152428D01*
X62482Y151985D01*
X63279Y151771D01*
Y154618D01*
D02*
G37*
%LPD*%
G36*
X225039Y260497D02*
Y259759D01*
X225388Y258457D01*
X226062Y257290D01*
X227015Y256337D01*
X228182Y255664D01*
X228332Y255623D01*
X228462Y255140D01*
X226406Y253085D01*
X212560D01*
X203907Y261737D01*
X204115Y262237D01*
X223299D01*
X225039Y260497D01*
D02*
G37*
D12*
X293110Y190748D02*
Y202612D01*
X278740Y176378D02*
X293110Y190748D01*
X286809Y208913D02*
X293110Y202612D01*
X264173Y176378D02*
X278740D01*
X284591Y208913D02*
X286809D01*
X284252Y209252D02*
X284591Y208913D01*
X282480Y239370D02*
X302756Y219094D01*
X256811Y239370D02*
X282480D01*
X302756Y183504D02*
Y219094D01*
X295079Y175827D02*
X302756Y183504D01*
X86220Y264764D02*
X144685D01*
X70669Y271024D02*
X79961D01*
X86220Y264764D01*
X199370Y125433D02*
X232598Y158661D01*
X247638D01*
X74449Y125433D02*
X99370D01*
X68908Y119892D02*
X74449Y125433D01*
X68898Y119892D02*
X68908D01*
X103995Y161162D02*
X139370Y125787D01*
Y125433D02*
Y125787D01*
X101279Y161162D02*
X103995D01*
X100827Y161614D02*
X101279Y161162D01*
X50590Y161614D02*
X100827D01*
X149370Y105433D02*
X169370Y125433D01*
X149370Y95433D02*
Y105433D01*
X134448Y80511D02*
X149370Y95433D01*
X60591Y80511D02*
X134448D01*
X41299Y99803D02*
X60591Y80511D01*
X223622Y239370D02*
X256811D01*
X209646Y225394D02*
X223622Y239370D01*
X119592Y115211D02*
X139370Y95433D01*
X57487Y115211D02*
X119592D01*
X39287Y133411D02*
X57487Y115211D01*
X39287Y133411D02*
Y181811D01*
X49587Y192111D01*
X168489D01*
X184055Y207677D01*
X223464Y168307D02*
X233898Y178740D01*
X170276Y168307D02*
X223464D01*
X121299Y178346D02*
X159370Y140275D01*
Y125433D02*
Y140275D01*
X115935Y183711D02*
X121299Y178346D01*
X75246Y183711D02*
X115935D01*
X63583Y172047D02*
X75246Y183711D01*
X200157Y260433D02*
X211079Y249511D01*
X227887D01*
X246457Y268081D01*
Y289567D01*
X208534Y307411D02*
X217913Y298031D01*
X77057Y307411D02*
X208534D01*
X70669Y301024D02*
X77057Y307411D01*
X224779Y265811D02*
X230157Y260433D01*
X189039Y265811D02*
X224779D01*
X170276Y247047D02*
X189039Y265811D01*
X120039Y154764D02*
Y161614D01*
Y154764D02*
X149370Y125433D01*
X44094Y155118D02*
X50590Y161614D01*
X149387Y85450D02*
X159370Y95433D01*
X149387Y57811D02*
Y85450D01*
Y57811D02*
X162087Y45111D01*
X224771D01*
X249213Y20669D01*
X168543Y207677D02*
X184055D01*
X117756Y258465D02*
X168543Y207677D01*
X162992Y60079D02*
X180524Y77611D01*
X191548D01*
X209370Y95433D01*
X193448Y89511D02*
X199370Y95433D01*
X180487Y89511D02*
X193448D01*
X157987Y67011D02*
X180487Y89511D01*
X157987Y56811D02*
Y67011D01*
Y56811D02*
X164187Y50611D01*
X171028D01*
X180496Y60079D01*
X170276Y168307D02*
X189370Y149212D01*
Y125433D02*
Y149212D01*
X256811Y239370D02*
Y251850D01*
X272087Y267126D01*
X284449D01*
X170276Y264764D02*
X174646D01*
X207913Y298031D01*
X229370Y125433D02*
X274685D01*
X295079Y145827D01*
X38976Y277756D02*
X44832Y283611D01*
X153493D01*
X167913Y298031D01*
X219370Y95433D02*
X230827Y83976D01*
X300394D01*
X114842Y166811D02*
X120039Y161614D01*
X49134Y166811D02*
X114842D01*
X43898Y172047D02*
X49134Y166811D01*
X184055Y225394D02*
X209646D01*
X144685Y264764D02*
X170276D01*
X144685Y186024D02*
X170276D01*
X105315Y225394D02*
X130906D01*
X184055Y207677D02*
X209646D01*
X144685Y168307D02*
X170276D01*
X255315Y45669D02*
X280905D01*
X162780Y178740D02*
X203898D01*
X162387Y178346D02*
X162780Y178740D01*
X121299Y178346D02*
X162387D01*
X255315Y63386D02*
X280905D01*
X265543Y93976D02*
X300394D01*
X264087Y95433D02*
X265543Y93976D01*
X229370Y95433D02*
X264087D01*
X105315Y207677D02*
X130906D01*
X144685Y247047D02*
X170276D01*
D17*
X43898Y172047D02*
D03*
X120039Y161614D02*
D03*
X44094Y155118D02*
D03*
D18*
X63583Y172047D02*
D03*
X100827Y161614D02*
D03*
X63779Y155118D02*
D03*
D25*
X45472Y19094D02*
D03*
X284449Y275000D02*
D03*
X46850Y277756D02*
D03*
X38976D02*
D03*
D26*
X37598Y19094D02*
D03*
X31102Y277756D02*
D03*
D28*
X284449Y267126D02*
D03*
D34*
X280905Y45669D02*
D03*
X255315D02*
D03*
X280905Y63386D02*
D03*
X209646Y207677D02*
D03*
X184055D02*
D03*
X209646Y225394D02*
D03*
X130906Y207677D02*
D03*
X105315D02*
D03*
X130906Y225394D02*
D03*
X170276Y168307D02*
D03*
X144685D02*
D03*
X170276Y186024D02*
D03*
Y247047D02*
D03*
X144685D02*
D03*
X170276Y264764D02*
D03*
D35*
X255315Y63386D02*
D03*
X184055Y225394D02*
D03*
X105315D02*
D03*
X144685Y186024D02*
D03*
Y264764D02*
D03*
D43*
X229370Y125433D02*
D03*
D44*
X219370D02*
D03*
X209370D02*
D03*
X199370D02*
D03*
X189370D02*
D03*
X179370D02*
D03*
X169370D02*
D03*
X159370D02*
D03*
X149370D02*
D03*
X139370D02*
D03*
X129370D02*
D03*
X119370D02*
D03*
X109370D02*
D03*
X99370D02*
D03*
X229370Y95433D02*
D03*
X219370D02*
D03*
X209370D02*
D03*
X199370D02*
D03*
X189370D02*
D03*
X179370D02*
D03*
X169370D02*
D03*
X159370D02*
D03*
X149370D02*
D03*
X139370D02*
D03*
X129370D02*
D03*
X119370D02*
D03*
X109370D02*
D03*
X99370D02*
D03*
D45*
X121299Y178346D02*
D03*
X91299D02*
D03*
X87756Y258465D02*
D03*
X117756D02*
D03*
X230157Y260433D02*
D03*
X200157D02*
D03*
X233898Y178740D02*
D03*
X203898D02*
D03*
X75984Y55512D02*
D03*
X34646Y57087D02*
D03*
X262992Y20669D02*
D03*
X264173Y176378D02*
D03*
Y146378D02*
D03*
X295079Y175827D02*
D03*
Y145827D02*
D03*
X246457Y289567D02*
D03*
X214496Y60079D02*
D03*
Y30079D02*
D03*
X197496Y60079D02*
D03*
Y30079D02*
D03*
X180496Y60079D02*
D03*
Y30079D02*
D03*
X162992Y60079D02*
D03*
Y30079D02*
D03*
X144094Y60079D02*
D03*
Y30079D02*
D03*
X125000Y60079D02*
D03*
Y30079D02*
D03*
X107480Y60079D02*
D03*
Y30079D02*
D03*
X70669Y301024D02*
D03*
Y271024D02*
D03*
D46*
X41299Y99803D02*
D03*
X31299D02*
D03*
D47*
X21299D02*
D03*
D48*
X62205Y55512D02*
D03*
X20866Y57087D02*
D03*
X249213Y20669D02*
D03*
X260236Y289567D02*
D03*
D49*
X256811Y239370D02*
D03*
X294370D02*
D03*
D50*
X284252Y204252D02*
D03*
D51*
Y209252D02*
D03*
Y214252D02*
D03*
D52*
X147323Y15354D02*
D03*
X167323D02*
D03*
X177323D02*
D03*
X157323D02*
D03*
X137323D02*
D03*
X127323D02*
D03*
X107913Y298031D02*
D03*
X117913D02*
D03*
X127913D02*
D03*
X147913D02*
D03*
X157913D02*
D03*
X177913D02*
D03*
X197913D02*
D03*
X207913D02*
D03*
X187913D02*
D03*
X167913D02*
D03*
X137913D02*
D03*
X300394Y103976D02*
D03*
Y93976D02*
D03*
Y83976D02*
D03*
D53*
X187323Y15354D02*
D03*
X217913Y298031D02*
D03*
D54*
X300394Y73976D02*
D03*
D55*
X247638Y158661D02*
D03*
X68898Y119892D02*
D03*
M02*
